# Blender v2.81 (sub 16) OBJ File: 'trashcan.blend'
# www.blender.org
mtllib newtrashcan2.mtl
o Trash_Can_Cube
v 0.564894 2.341329 -1.363775
v 0.382683 -1.000000 -0.923880
v 0.287981 2.341329 -1.447776
v 0.195090 -1.000000 -0.980785
v -0.000000 2.341329 -1.476140
v 0.000000 -1.000000 -1.000000
v 0.555570 -1.000000 -0.831470
v 0.820099 2.341329 -1.227365
v 0.707107 -1.000000 -0.707107
v 1.043789 2.341329 -1.043788
v 0.831470 -1.000000 -0.555570
v 1.227366 2.341329 -0.820099
v 0.923880 -1.000000 -0.382683
v 1.363776 2.341329 -0.564894
v 0.980785 -1.000000 -0.195090
v 1.447776 2.341329 -0.287981
v 1.000000 -1.000000 -0.000000
v 1.476140 2.341329 0.000000
v 0.980785 -1.000000 0.195090
v 1.447777 2.341329 0.287981
v 0.923880 -1.000000 0.382683
v 1.363776 2.341329 0.564894
v 0.831470 -1.000000 0.555570
v 1.227366 2.341329 0.820100
v 0.707107 -1.000000 0.707107
v 1.043789 2.341329 1.043789
v 0.555570 -1.000000 0.831470
v 0.820099 2.341329 1.227366
v 0.382683 -1.000000 0.923880
v 0.564894 2.341329 1.363776
v 0.195090 -1.000000 0.980785
v 0.287980 2.341329 1.447777
v -0.000000 -1.000000 1.000000
v -0.000001 2.341329 1.476140
v -0.195091 -1.000000 0.980785
v -0.287981 2.341329 1.447777
v -0.382684 -1.000000 0.923879
v -0.564895 2.341329 1.363775
v -0.555571 -1.000000 0.831469
v -0.820100 2.341329 1.227365
v -0.707107 -1.000000 0.707106
v -1.043790 2.341329 1.043788
v -0.831470 -1.000000 0.555570
v -1.227366 2.341329 0.820099
v -0.923880 -1.000000 0.382683
v -1.363776 2.341329 0.564893
v -0.980785 -1.000000 0.195089
v -1.447777 2.341329 0.287980
v -1.000000 -1.000000 -0.000001
v -1.476140 2.341329 -0.000001
v -0.980785 -1.000000 -0.195091
v -1.447776 2.341329 -0.287982
v -0.923879 -1.000000 -0.382684
v -1.363775 2.341329 -0.564896
v -0.831469 -1.000000 -0.555571
v -1.227365 2.341329 -0.820101
v -0.707106 -1.000000 -0.707108
v -1.043787 2.341329 -1.043790
v -0.555569 -1.000000 -0.831470
v -0.820098 2.341329 -1.227367
v -0.382682 -1.000000 -0.923880
v -0.564892 2.341329 -1.363776
v -0.195089 -1.000000 -0.980786
v -0.287978 2.341329 -1.447777
v 0.656275 2.307301 -1.584389
v 0.334566 2.307301 -1.681978
v 0.241676 -1.034028 -1.214987
v 0.474064 -1.034028 -1.144493
v 0.000000 -1.034028 -1.238790
v 0.000000 2.307301 -1.714930
v 0.688235 -1.034028 -1.030016
v 0.952764 2.307301 -1.425912
v 0.875957 -1.034028 -0.875957
v 1.212639 2.307301 -1.212639
v 1.030016 -1.034028 -0.688235
v 1.425912 2.307301 -0.952764
v 1.144493 -1.034028 -0.474064
v 1.584389 2.307301 -0.656275
v 1.214987 -1.034028 -0.241676
v 1.681978 2.307301 -0.334566
v 1.238790 -1.034028 -0.000000
v 1.714930 2.307301 -0.000000
v 1.214987 -1.034028 0.241676
v 1.681978 2.307301 0.334566
v 1.144493 -1.034028 0.474064
v 1.584389 2.307301 0.656275
v 1.030016 -1.034028 0.688235
v 1.425913 2.307301 0.952764
v 0.875957 -1.034028 0.875957
v 1.212639 2.307301 1.212639
v 0.688235 -1.034028 1.030016
v 0.952764 2.307301 1.425913
v 0.474064 -1.034028 1.144493
v 0.656275 2.307301 1.584389
v 0.241676 -1.034028 1.214987
v 0.334566 2.307301 1.681979
v -0.000000 -1.034028 1.238790
v -0.000001 2.307301 1.714931
v -0.241676 -1.034028 1.214987
v -0.334567 2.307301 1.681978
v -0.474065 -1.034028 1.144493
v -0.656276 2.307301 1.584389
v -0.688236 -1.034028 1.030016
v -0.952765 2.307301 1.425912
v -0.875957 -1.034028 0.875956
v -1.212640 2.307301 1.212638
v -1.030017 -1.034028 0.688234
v -1.425913 2.307301 0.952763
v -1.144493 -1.034028 0.474063
v -1.584390 2.307301 0.656274
v -1.214987 -1.034028 0.241675
v -1.681979 2.307301 0.334565
v -1.238790 -1.034028 -0.000001
v -1.714930 2.307301 -0.000002
v -1.214987 -1.034028 -0.241677
v -1.681978 2.307301 -0.334568
v -1.144492 -1.034028 -0.474066
v -1.584388 2.307301 -0.656277
v -1.030016 -1.034028 -0.688236
v -1.425911 2.307301 -0.952766
v -0.875956 -1.034028 -0.875958
v -1.212637 2.307301 -1.212640
v -0.688234 -1.034028 -1.030017
v -0.952762 2.307301 -1.425913
v -0.474063 -1.034028 -1.144494
v -0.656273 2.307301 -1.584390
v -0.241674 -1.034028 -1.214988
v -0.334564 2.307301 -1.681979
v 0.195090 -1.418213 -0.980785
v 0.382683 -1.418213 -0.923880
v -0.000000 -1.418213 -1.000000
v 0.555570 -1.418213 -0.831470
v 0.707107 -1.418213 -0.707107
v 0.831470 -1.418213 -0.555570
v 0.923880 -1.418213 -0.382683
v 0.980785 -1.418213 -0.195090
v 1.000000 -1.418213 -0.000000
v 0.980785 -1.418213 0.195090
v 0.923880 -1.418213 0.382683
v 0.831470 -1.418213 0.555570
v 0.707107 -1.418213 0.707107
v 0.555570 -1.418213 0.831470
v 0.382683 -1.418213 0.923880
v 0.195090 -1.418213 0.980785
v -0.000000 -1.418213 1.000000
v -0.195091 -1.418213 0.980785
v -0.382684 -1.418213 0.923879
v -0.555571 -1.418213 0.831469
v -0.707107 -1.418213 0.707106
v -0.831470 -1.418213 0.555570
v -0.923880 -1.418213 0.382683
v -0.980785 -1.418213 0.195089
v -1.000000 -1.418213 -0.000001
v -0.980785 -1.418213 -0.195091
v -0.923879 -1.418213 -0.382684
v -0.831469 -1.418213 -0.555571
v -0.707106 -1.418213 -0.707108
v -0.555569 -1.418213 -0.831470
v -0.382682 -1.418213 -0.923880
v -0.195089 -1.418213 -0.980786
vt 0.000000 0.000000
vt 0.000000 0.000000
vt 0.000000 0.000000
vt 0.000000 0.000000
vt 0.514612 0.296822
vt 0.510000 0.250000
vt 0.510000 0.250000
vt 0.514612 0.296822
vt 0.000000 0.000000
vt 0.000000 0.000000
vt 0.000000 0.000000
vt 0.000000 0.000000
vt 0.750000 0.010000
vt 0.796822 0.014612
vt 0.796822 0.014612
vt 0.750000 0.010000
vt 0.985388 0.296822
vt 0.971731 0.341844
vt 0.971731 0.341844
vt 0.985388 0.296822
vt 0.000000 0.000000
vt 0.000000 0.000000
vt 0.000000 0.000000
vt 0.000000 0.000000
vt 0.000000 0.000000
vt 0.000000 0.000000
vt 0.514611 0.203179
vt 0.514611 0.203179
vt 0.000000 0.000000
vt 0.000000 0.000000
vt 0.841844 0.028269
vt 0.841844 0.028269
vt 0.000000 0.000000
vt 0.000000 0.000000
vt 0.000000 0.000000
vt 0.000000 0.000000
vt 0.949553 0.383337
vt 0.949553 0.383337
vt 0.000000 0.000000
vt 0.000000 0.000000
vt 0.750000 0.490000
vt 0.703179 0.485389
vt 0.703179 0.485389
vt 0.750000 0.490000
vt 0.000000 0.000000
vt 0.000000 0.000000
vt 0.528269 0.158156
vt 0.528269 0.158156
vt 0.000000 0.000000
vt 0.000000 0.000000
vt 0.883337 0.050447
vt 0.883337 0.050447
vt 0.000000 0.000000
vt 0.000000 0.000000
vt 0.919706 0.419706
vt 0.919706 0.419706
vt 0.000000 0.000000
vt 0.000000 0.000000
vt 0.658156 0.471731
vt 0.658156 0.471731
vt 0.000000 0.000000
vt 0.000000 0.000000
vt 0.550447 0.116663
vt 0.550447 0.116663
vt 0.000000 0.000000
vt 0.000000 0.000000
vt 0.919706 0.080294
vt 0.919706 0.080294
vt 0.000000 0.000000
vt 0.000000 0.000000
vt 0.883337 0.449553
vt 0.883337 0.449553
vt 0.000000 0.000000
vt 0.000000 0.000000
vt 0.616663 0.449553
vt 0.616663 0.449553
vt 0.796822 0.485388
vt 0.841844 0.471731
vt 0.841844 0.471731
vt 0.796822 0.485388
vt 0.000000 0.000000
vt 0.000000 0.000000
vt 0.580294 0.080294
vt 0.580294 0.080294
vt 1.000000 0.500000
vt 1.000000 1.000000
vt 0.968750 1.000000
vt 0.968750 0.500000
vt 0.968750 0.500000
vt 0.968750 1.000000
vt 0.937500 1.000000
vt 0.937500 0.500000
vt 0.937500 0.500000
vt 0.937500 1.000000
vt 0.906250 1.000000
vt 0.906250 0.500000
vt 0.875000 1.000000
vt 0.875000 0.500000
vt 0.843750 1.000000
vt 0.843750 0.500000
vt 0.812500 1.000000
vt 0.812500 0.500000
vt 0.781250 1.000000
vt 0.781250 0.500000
vt 0.750000 1.000000
vt 0.750000 0.500000
vt 0.718750 1.000000
vt 0.718750 0.500000
vt 0.687500 1.000000
vt 0.687500 0.500000
vt 0.656250 1.000000
vt 0.656250 0.500000
vt 0.625000 1.000000
vt 0.625000 0.500000
vt 0.593750 1.000000
vt 0.593750 0.500000
vt 0.562500 1.000000
vt 0.562500 0.500000
vt 0.531250 1.000000
vt 0.531250 0.500000
vt 0.500000 1.000000
vt 0.500000 0.500000
vt 0.468750 1.000000
vt 0.468750 0.500000
vt 0.437500 1.000000
vt 0.437500 0.500000
vt 0.406250 1.000000
vt 0.406250 0.500000
vt 0.375000 1.000000
vt 0.375000 0.500000
vt 0.343750 1.000000
vt 0.343750 0.500000
vt 0.312500 1.000000
vt 0.312500 0.500000
vt 0.281250 1.000000
vt 0.281250 0.500000
vt 0.250000 1.000000
vt 0.250000 0.500000
vt 0.218750 1.000000
vt 0.218750 0.500000
vt 0.187500 1.000000
vt 0.187500 0.500000
vt 0.156250 1.000000
vt 0.156250 0.500000
vt 0.125000 1.000000
vt 0.125000 0.500000
vt 0.093750 1.000000
vt 0.093750 0.500000
vt 0.062500 1.000000
vt 0.062500 0.500000
vt 0.031250 1.000000
vt 0.031250 0.500000
vt 0.000000 1.000000
vt 0.000000 0.500000
vt 0.000000 0.000000
vt 0.000000 0.000000
vt 0.990000 0.250000
vt 0.990000 0.250000
vt 0.703178 0.014612
vt 0.703178 0.014612
vt 0.000000 0.000000
vt 0.000000 0.000000
vt 0.528269 0.341844
vt 0.528269 0.341844
vt 0.000000 0.000000
vt 0.000000 0.000000
vt 0.000000 0.000000
vt 0.000000 0.000000
vt 0.985388 0.203178
vt 0.985388 0.203178
vt 0.658156 0.028269
vt 0.658156 0.028269
vt 0.000000 0.000000
vt 0.000000 0.000000
vt 0.000000 0.000000
vt 0.000000 0.000000
vt 0.000000 0.000000
vt 0.000000 0.000000
vt 0.550447 0.383337
vt 0.550447 0.383337
vt 0.000000 0.000000
vt 0.000000 0.000000
vt 0.796822 0.485388
vt 0.841844 0.471731
vt 0.000000 0.000000
vt 0.000000 0.000000
vt 0.971731 0.158156
vt 0.971731 0.158156
vt 0.616663 0.050447
vt 0.616663 0.050447
vt 0.000000 0.000000
vt 0.000000 0.000000
vt 0.580295 0.419706
vt 0.580295 0.419706
vt 0.000000 0.000000
vt 0.000000 0.000000
vt 0.000000 0.000000
vt 0.000000 0.000000
vt 0.949553 0.116663
vt 0.949553 0.116663
vt 0.883337 0.449553
vt 0.919706 0.419706
vt 0.949553 0.383337
vt 0.971731 0.341844
vt 0.985388 0.296822
vt 0.990000 0.250000
vt 0.985388 0.203178
vt 0.971731 0.158156
vt 0.949553 0.116663
vt 0.919706 0.080294
vt 0.883337 0.050447
vt 0.841844 0.028269
vt 0.796822 0.014612
vt 0.750000 0.010000
vt 0.703178 0.014612
vt 0.658156 0.028269
vt 0.616663 0.050447
vt 0.580294 0.080294
vt 0.550447 0.116663
vt 0.528269 0.158156
vt 0.514611 0.203179
vt 0.510000 0.250000
vt 0.514612 0.296822
vt 0.528269 0.341844
vt 0.550447 0.383337
vt 0.580295 0.419706
vt 0.616663 0.449553
vt 0.658156 0.471731
vt 0.703179 0.485389
vt 0.750000 0.490000
vn 0.0139 0.9899 0.1411
vn 0.1411 -0.9899 0.0139
vn 0.1356 0.9899 -0.0411
vn -0.0139 -0.9899 -0.1411
vn -0.1356 -0.9899 0.0411
vn -0.1411 0.9899 0.0139
vn 0.0411 0.9899 0.1356
vn 0.1411 -0.9899 -0.0139
vn 0.1250 0.9899 -0.0668
vn -0.0411 -0.9899 -0.1356
vn -0.0139 0.9899 -0.1411
vn -0.1250 -0.9899 0.0668
vn -0.1356 0.9899 0.0411
vn 0.0139 -0.9899 0.1411
vn 0.0668 0.9899 0.1250
vn 0.1356 -0.9899 -0.0411
vn 0.1096 0.9899 -0.0899
vn -0.0668 -0.9899 -0.1250
vn -0.0411 0.9899 -0.1356
vn -0.1096 -0.9899 0.0899
vn -0.1250 0.9899 0.0668
vn 0.0411 -0.9899 0.1356
vn 0.0899 0.9899 0.1096
vn 0.1250 -0.9899 -0.0668
vn 0.0899 0.9899 -0.1096
vn -0.0899 -0.9899 -0.1096
vn -0.0668 0.9899 -0.1250
vn -0.0899 -0.9899 0.1096
vn -0.1096 0.9899 0.0899
vn 0.0668 -0.9899 0.1250
vn 0.2903 -0.0000 -0.9569
vn 0.1096 0.9899 0.0899
vn 0.1096 -0.9899 -0.0899
vn 0.2874 -0.1404 -0.9475
vn 0.0970 -0.1404 -0.9853
vn 0.4667 -0.1404 -0.8732
vn 0.6281 -0.1404 -0.7654
vn 0.7654 -0.1404 -0.6281
vn 0.8732 -0.1404 -0.4667
vn 0.9475 -0.1404 -0.2874
vn 0.9853 -0.1404 -0.0970
vn 0.9853 -0.1404 0.0970
vn 0.9475 -0.1404 0.2874
vn 0.8732 -0.1404 0.4667
vn 0.7654 -0.1404 0.6281
vn 0.6281 -0.1404 0.7654
vn 0.4667 -0.1404 0.8732
vn 0.2874 -0.1404 0.9475
vn 0.0970 -0.1404 0.9853
vn -0.0970 -0.1404 0.9853
vn -0.2874 -0.1404 0.9475
vn -0.4667 -0.1404 0.8732
vn -0.6281 -0.1404 0.7654
vn -0.7654 -0.1404 0.6281
vn -0.8732 -0.1404 0.4667
vn -0.9475 -0.1404 0.2874
vn -0.9853 -0.1404 0.0970
vn -0.9853 -0.1404 -0.0970
vn -0.9475 -0.1404 -0.2874
vn -0.8732 -0.1404 -0.4667
vn -0.7654 -0.1404 -0.6281
vn -0.6281 -0.1404 -0.7654
vn -0.4667 -0.1404 -0.8732
vn -0.2874 -0.1404 -0.9475
vn -0.0970 -0.1404 -0.9853
vn -0.1411 0.9899 -0.0139
vn -0.1411 -0.9899 0.0139
vn 0.0139 -0.9899 -0.1411
vn 0.1411 0.9899 -0.0139
vn 0.1356 -0.9899 0.0411
vn -0.0139 0.9899 0.1411
vn -0.1356 0.9899 -0.0411
vn -0.1411 -0.9899 -0.0139
vn 0.0411 -0.9899 -0.1356
vn 0.1411 0.9899 0.0139
vn 0.0411 0.9899 -0.1356
vn 0.1250 -0.9899 0.0668
vn -0.0411 0.9899 0.1356
vn -0.0411 -0.9899 0.1356
vn -0.1250 0.9899 -0.0668
vn -0.1356 -0.9899 -0.0411
vn 0.0668 -0.9899 -0.1250
vn 0.1356 0.9899 0.0411
vn 0.1096 -0.9899 0.0899
vn -0.0668 0.9899 0.1250
vn 0.0139 0.9899 -0.1411
vn -0.1096 0.9899 -0.0899
vn -0.1250 -0.9899 -0.0668
vn -0.0139 -0.9899 0.1411
vn 0.0899 -0.9899 -0.1096
vn 0.1250 0.9899 0.0668
vn 0.0899 -0.9899 0.1096
vn -0.0899 0.9899 0.1096
vn -0.0668 -0.9899 0.1250
vn -0.0899 0.9899 -0.1096
vn -0.1096 -0.9899 -0.0899
vn 0.0668 0.9899 -0.1250
vn -0.0000 -1.0000 -0.0000
vn 0.9569 0.0000 0.2903
vn -0.4714 0.0000 0.8819
vn -0.7730 0.0000 -0.6344
vn 0.8819 0.0000 -0.4714
vn 0.2903 0.0000 0.9569
vn -0.9952 0.0000 0.0980
vn 0.8819 0.0000 0.4714
vn -0.6344 0.0000 0.7730
vn -0.6344 0.0000 -0.7730
vn 0.0980 -0.0000 -0.9952
vn 0.9569 0.0000 -0.2903
vn 0.0980 -0.0000 0.9952
vn -0.9952 0.0000 -0.0980
vn 0.4714 -0.0000 -0.8819
vn 0.7730 0.0000 0.6344
vn -0.7730 0.0000 0.6344
vn -0.4714 0.0000 -0.8819
vn 0.9952 0.0000 -0.0980
vn -0.0980 0.0000 0.9952
vn -0.9569 0.0000 -0.2903
vn 0.6344 0.0000 -0.7730
vn 0.6344 -0.0000 0.7730
vn -0.8819 0.0000 0.4714
vn -0.2903 0.0000 -0.9569
vn 0.9952 -0.0000 0.0980
vn -0.2903 0.0000 0.9569
vn -0.8819 0.0000 -0.4714
vn 0.7730 0.0000 -0.6344
vn 0.4714 0.0000 0.8819
vn -0.9569 0.0000 0.2903
vn -0.0980 0.0000 -0.9952
usemtl Material
s off
f 32/1/1 34/2/1 98/3/1 96/4/1
f 51/5/2 49/6/2 113/7/2 115/8/2
f 14/9/3 16/10/3 80/11/3 78/12/3
f 33/13/4 31/14/4 95/15/4 97/16/4
f 15/17/5 13/18/5 77/19/5 79/20/5
f 48/21/6 50/22/6 114/23/6 112/24/6
f 30/25/7 32/1/7 96/4/7 94/26/7
f 49/6/8 47/27/8 111/28/8 113/7/8
f 12/29/9 14/9/9 78/12/9 76/30/9
f 31/14/10 29/31/10 93/32/10 95/15/10
f 64/33/11 5/34/11 70/35/11 128/36/11
f 13/18/12 11/37/12 75/38/12 77/19/12
f 46/39/13 48/21/13 112/24/13 110/40/13
f 6/41/14 63/42/14 127/43/14 69/44/14
f 28/45/15 30/25/15 94/26/15 92/46/15
f 47/27/16 45/47/16 109/48/16 111/28/16
f 10/49/17 12/29/17 76/30/17 74/50/17
f 29/31/18 27/51/18 91/52/18 93/32/18
f 62/53/19 64/33/19 128/36/19 126/54/19
f 11/37/20 9/55/20 73/56/20 75/38/20
f 44/57/21 46/39/21 110/40/21 108/58/21
f 63/42/22 61/59/22 125/60/22 127/43/22
f 26/61/23 28/45/23 92/46/23 90/62/23
f 45/47/24 43/63/24 107/64/24 109/48/24
f 8/65/25 10/49/25 74/50/25 72/66/25
f 27/51/26 25/67/26 89/68/26 91/52/26
f 60/69/27 62/53/27 126/54/27 124/70/27
f 9/55/28 7/71/28 71/72/28 73/56/28
f 42/73/29 44/57/29 108/58/29 106/74/29
f 61/59/30 59/75/30 123/76/30 125/60/30
f 4/77/31 2/78/31 130/79/31 129/80/31
f 24/81/32 26/61/32 90/62/32 88/82/32
f 43/63/33 41/83/33 105/84/33 107/64/33
f 67/85/34 66/86/34 65/87/34 68/88/34
f 69/89/35 70/90/35 66/91/35 67/92/35
f 68/93/36 65/94/36 72/95/36 71/96/36
f 71/96/37 72/95/37 74/97/37 73/98/37
f 73/98/38 74/97/38 76/99/38 75/100/38
f 75/100/39 76/99/39 78/101/39 77/102/39
f 77/102/40 78/101/40 80/103/40 79/104/40
f 79/104/41 80/103/41 82/105/41 81/106/41
f 81/106/42 82/105/42 84/107/42 83/108/42
f 83/108/43 84/107/43 86/109/43 85/110/43
f 85/110/44 86/109/44 88/111/44 87/112/44
f 87/112/45 88/111/45 90/113/45 89/114/45
f 89/114/46 90/113/46 92/115/46 91/116/46
f 91/116/47 92/115/47 94/117/47 93/118/47
f 93/118/48 94/117/48 96/119/48 95/120/48
f 95/120/49 96/119/49 98/121/49 97/122/49
f 97/122/50 98/121/50 100/123/50 99/124/50
f 99/124/51 100/123/51 102/125/51 101/126/51
f 101/126/52 102/125/52 104/127/52 103/128/52
f 103/128/53 104/127/53 106/129/53 105/130/53
f 105/130/54 106/129/54 108/131/54 107/132/54
f 107/132/55 108/131/55 110/133/55 109/134/55
f 109/134/56 110/133/56 112/135/56 111/136/56
f 111/136/57 112/135/57 114/137/57 113/138/57
f 113/138/58 114/137/58 116/139/58 115/140/58
f 115/140/59 116/139/59 118/141/59 117/142/59
f 117/142/60 118/141/60 120/143/60 119/144/60
f 119/144/61 120/143/61 122/145/61 121/146/61
f 121/146/62 122/145/62 124/147/62 123/148/62
f 123/148/63 124/147/63 126/149/63 125/150/63
f 125/150/64 126/149/64 128/151/64 127/152/64
f 127/152/65 128/151/65 70/153/65 69/154/65
f 50/22/66 52/155/66 116/156/66 114/23/66
f 17/157/67 15/17/67 79/20/67 81/158/67
f 35/159/68 33/13/68 97/16/68 99/160/68
f 16/10/69 18/161/69 82/162/69 80/11/69
f 53/163/70 51/5/70 115/8/70 117/164/70
f 34/2/71 36/165/71 100/166/71 98/3/71
f 52/155/72 54/167/72 118/168/72 116/156/72
f 19/169/73 17/157/73 81/158/73 83/170/73
f 37/171/74 35/159/74 99/160/74 101/172/74
f 18/161/75 20/173/75 84/174/75 82/162/75
f 3/175/76 1/176/76 65/177/76 66/178/76
f 55/179/77 53/163/77 117/164/77 119/180/77
f 36/165/78 38/181/78 102/182/78 100/166/78
f 2/78/79 4/77/79 67/183/79 68/184/79
f 54/167/80 56/185/80 120/186/80 118/168/80
f 21/187/81 19/169/81 83/170/81 85/188/81
f 39/189/82 37/171/82 101/172/82 103/190/82
f 20/173/83 22/191/83 86/192/83 84/174/83
f 57/193/84 55/179/84 119/180/84 121/194/84
f 38/181/85 40/195/85 104/196/85 102/182/85
f 5/34/86 3/175/86 66/178/86 70/35/86
f 56/185/87 58/197/87 122/198/87 120/186/87
f 23/199/88 21/187/88 85/188/88 87/200/88
f 4/77/89 6/41/89 69/44/89 67/183/89
f 41/83/90 39/189/90 103/190/90 105/84/90
f 22/191/91 24/81/91 88/82/91 86/192/91
f 59/75/92 57/193/92 121/194/92 123/76/92
f 40/195/93 42/73/93 106/74/93 104/196/93
f 7/71/94 2/78/94 68/184/94 71/72/94
f 58/197/95 60/69/95 124/70/95 122/198/95
f 25/67/96 23/199/96 87/200/96 89/68/96
f 1/176/97 8/65/97 72/66/97 65/177/97
f 129/80/98 130/79/98 132/201/98 133/202/98 134/203/98 135/204/98 136/205/98 137/206/98 138/207/98 139/208/98 140/209/98 141/210/98 142/211/98 143/212/98 144/213/98 145/214/98 146/215/98 147/216/98 148/217/98 149/218/98 150/219/98 151/220/98 152/221/98 153/222/98 154/223/98 155/224/98 156/225/98 157/226/98 158/227/98 159/228/98 160/229/98 131/230/98
f 19/169/99 21/187/99 139/208/99 138/207/99
f 37/171/100 39/189/100 148/217/100 147/216/100
f 55/179/101 57/193/101 157/226/101 156/225/101
f 11/37/102 13/18/102 135/204/102 134/203/102
f 29/31/103 31/14/103 144/213/103 143/212/103
f 47/27/104 49/6/104 153/222/104 152/221/104
f 21/187/105 23/199/105 140/209/105 139/208/105
f 39/189/106 41/83/106 149/218/106 148/217/106
f 57/193/107 59/75/107 158/227/107 157/226/107
f 6/41/108 4/77/108 129/80/108 131/230/108
f 13/18/109 15/17/109 136/205/109 135/204/109
f 31/14/110 33/13/110 145/214/110 144/213/110
f 49/6/111 51/5/111 154/223/111 153/222/111
f 2/78/112 7/71/112 132/201/112 130/79/112
f 23/199/113 25/67/113 141/210/113 140/209/113
f 41/83/114 43/63/114 150/219/114 149/218/114
f 59/75/115 61/59/115 159/228/115 158/227/115
f 15/17/116 17/157/116 137/206/116 136/205/116
f 33/13/117 35/159/117 146/215/117 145/214/117
f 51/5/118 53/163/118 155/224/118 154/223/118
f 7/71/119 9/55/119 133/202/119 132/201/119
f 25/67/120 27/51/120 142/211/120 141/210/120
f 43/63/121 45/47/121 151/220/121 150/219/121
f 61/59/122 63/42/122 160/229/122 159/228/122
f 17/157/123 19/169/123 138/207/123 137/206/123
f 35/159/124 37/171/124 147/216/124 146/215/124
f 53/163/125 55/179/125 156/225/125 155/224/125
f 9/55/126 11/37/126 134/203/126 133/202/126
f 27/51/127 29/31/127 143/212/127 142/211/127
f 45/47/128 47/27/128 152/221/128 151/220/128
f 63/42/129 6/41/129 131/230/129 160/229/129
