# Blender v2.80 (sub 75) OBJ File: 'road (0.96f x 0.08m).blend'
# www.blender.org
mtllib road (0.96f x 0.08m).mtl
o Cube
v 8.000000 0.500000 -8.000000
v 8.000000 -0.500000 -8.000000
v 8.000000 0.500000 8.000000
v 8.000000 -0.500000 8.000000
v -8.000000 0.500000 -8.000000
v -8.000000 -0.500000 -8.000000
v -8.000000 0.500000 8.000000
v -8.000000 -0.500000 8.000000
v -8.000000 -0.500000 7.680000
v 8.000000 0.500000 7.680000
v -8.000000 0.500000 7.680000
v 8.000000 -0.500000 7.680000
v -8.000000 0.500000 -7.686400
v 8.000000 -0.500000 -7.686400
v -8.000000 -0.500000 -7.686400
v 8.000000 0.500000 -7.686400
v -8.000000 -0.500000 -0.003200
v 8.000000 0.500000 -0.003200
v -8.000000 0.500000 -0.003200
v 8.000000 -0.500000 -0.003200
v -8.000000 -0.500000 3.838400
v 8.000000 0.500000 3.838400
v -8.000000 0.500000 3.838400
v 8.000000 -0.500000 3.838400
v -8.000000 0.500000 -3.844800
v 8.000000 -0.500000 -3.844800
v -8.000000 -0.500000 -3.844800
v 8.000000 0.500000 -3.844800
v -7.680000 -0.500000 -8.000000
v -7.680000 0.500000 8.000000
v -7.680000 -0.500000 8.000000
v -7.680000 0.500000 -8.000000
v -7.680000 -0.500000 7.680000
v -7.680000 0.500000 7.680000
v -7.680000 0.500000 -7.686400
v -7.680000 -0.500000 -7.686400
v -7.680000 0.500000 -0.003200
v -7.680000 -0.500000 -0.003200
v -7.680000 0.500000 3.838400
v -7.680000 -0.500000 3.838400
v -7.680000 -0.500000 -3.844800
v -7.680000 0.500000 -3.844800
v 7.686400 -0.500000 8.000000
v 7.686400 0.500000 -8.000000
v 7.686400 0.500000 7.680000
v 7.686400 0.500000 -7.686400
v 7.686400 0.500000 -0.003200
v 7.686400 0.500000 3.838400
v 7.686400 0.500000 -3.844800
v 7.686400 -0.500000 -8.000000
v 7.686400 0.500000 8.000000
v 7.686400 -0.500000 7.680000
v 7.686400 -0.500000 -7.686400
v 7.686400 -0.500000 -0.003200
v 7.686400 -0.500000 3.838400
v 7.686400 -0.500000 -3.844800
v -7.680000 0.580000 8.000000
v -8.000000 0.580000 8.000000
v 8.000000 0.580000 7.680000
v 8.000000 0.580000 8.000000
v -8.000000 0.580000 -7.686400
v -8.000000 0.580000 -8.000000
v 7.686400 0.580000 -8.000000
v 8.000000 0.580000 -8.000000
v -8.000000 0.580000 7.680000
v 7.686400 0.580000 7.680000
v 8.000000 0.580000 -7.686400
v 7.686400 0.580000 -7.686400
v 7.686400 0.580000 8.000000
v -7.680000 0.580000 -8.000000
v -7.680000 0.580000 7.680000
v -7.680000 0.580000 -7.686400
vt 0.379900 0.004900
vt 0.375000 0.004900
vt 0.375000 0.004900
vt 0.379900 0.004900
vt 0.375000 0.495000
vt 0.625000 0.495000
vt 0.625000 0.500000
vt 0.375000 0.500000
vt 0.375000 0.745100
vt 0.625000 0.745100
vt 0.625000 0.750000
vt 0.375000 0.750000
vt 0.620100 0.995000
vt 0.625000 0.995000
vt 0.625000 1.000000
vt 0.620100 1.000000
vt 0.125000 0.745000
vt 0.375000 0.745000
vt 0.375000 0.750000
vt 0.125000 0.750000
vt 0.625000 0.745100
vt 0.875000 0.745100
vt 0.875000 0.750000
vt 0.625000 0.750000
vt 0.125000 0.684975
vt 0.375000 0.684975
vt 0.620100 0.934975
vt 0.625000 0.934975
vt 0.625000 0.505000
vt 0.375000 0.505000
vt 0.620000 0.184975
vt 0.625000 0.184975
vt 0.625000 0.245000
vt 0.620000 0.245000
vt 0.625000 0.745100
vt 0.625000 0.750000
vt 0.620100 0.750000
vt 0.625000 0.754900
vt 0.620100 0.754900
vt 0.125000 0.500000
vt 0.375000 0.500000
vt 0.375000 0.504900
vt 0.125000 0.504900
vt 0.375000 0.685075
vt 0.625000 0.685075
vt 0.375000 0.565025
vt 0.625000 0.565025
vt 0.625000 0.625050
vt 0.375000 0.625050
vt 0.620000 0.064925
vt 0.625000 0.064925
vt 0.625000 0.124950
vt 0.620000 0.124950
vt 0.620100 0.814925
vt 0.625000 0.814925
vt 0.625000 0.874950
vt 0.620100 0.874950
vt 0.125000 0.564925
vt 0.375000 0.564925
vt 0.375000 0.624950
vt 0.125000 0.624950
vt 0.620000 0.004900
vt 0.625000 0.004900
vt 0.379900 0.064925
vt 0.375000 0.754900
vt 0.380000 0.754900
vt 0.380000 0.814925
vt 0.375000 0.814925
vt 0.375000 0.874950
vt 0.380000 0.874950
vt 0.380000 0.934975
vt 0.375000 0.934975
vt 0.379900 0.124950
vt 0.379900 0.184975
vt 0.380000 0.750000
vt 0.620000 0.004900
vt 0.379900 0.245000
vt 0.380000 0.995000
vt 0.375000 0.995000
vt 0.625000 0.500000
vt 0.875000 0.500000
vt 0.875000 0.505000
vt 0.625000 0.505000
vt 0.380000 1.000000
vt 0.375000 1.000000
vt 0.375000 0.254900
vt 0.625000 0.254900
vt 0.625000 0.254900
vt 0.625000 0.495000
vt 0.375000 0.500000
vt 0.375000 0.504900
vt 0.375000 0.250000
vt 0.625000 0.250000
vt 0.375000 0.184975
vt 0.375000 0.245000
vt 0.620000 0.245000
vt 0.379900 0.245000
vt 0.375000 0.064925
vt 0.375000 0.124950
vt 0.625000 0.245000
vt 0.625000 0.250000
vt 0.620000 0.250000
vt 0.620000 0.000000
vt 0.625000 0.000000
vt 0.625000 0.004900
vt 0.379900 0.000000
vt 0.379900 0.250000
vt 0.375000 0.245000
vt 0.375000 0.250000
vt 0.375000 0.000000
vt 0.875000 0.745100
vt 0.875000 0.750000
vt 0.875000 0.500000
vt 0.875000 0.505000
vt 0.625000 0.500000
vt 0.625000 0.250000
vt 0.625000 0.505000
vt 0.375000 0.745000
vt 0.375000 0.750000
vn 0.0000 0.0000 1.0000
vn -1.0000 0.0000 0.0000
vn 0.0000 -1.0000 0.0000
vn 1.0000 0.0000 0.0000
vn 0.0000 0.0000 -1.0000
vn 0.0000 1.0000 0.0000
usemtl Material
s off
f 46/1/1 16/2/1 67/3/1 68/4/1
f 31/5/1 30/6/1 7/7/1 8/8/1
f 15/9/2 13/10/2 5/11/2 6/12/2
f 52/13/3 12/14/3 4/15/3 43/16/3
f 12/17/4 10/18/4 3/19/4 4/20/4
f 50/21/5 44/22/5 1/23/5 2/24/5
f 24/25/4 22/26/4 10/18/4 12/17/4
f 55/27/3 24/28/3 12/14/3 52/13/3
f 8/8/2 7/7/2 11/29/2 9/30/2
f 39/31/6 23/32/6 11/33/6 34/34/6
f 5/11/2 13/10/2 61/35/2 62/36/2
f 50/37/3 2/24/3 14/38/3 53/39/3
f 2/40/4 1/41/4 16/42/4 14/43/4
f 27/44/2 25/45/2 13/10/2 15/9/2
f 21/46/2 23/47/2 19/48/2 17/49/2
f 42/50/6 25/51/6 19/52/6 37/53/6
f 56/54/3 26/55/3 20/56/3 54/57/3
f 26/58/4 28/59/4 18/60/4 20/61/4
f 9/30/2 11/29/2 23/47/2 21/46/2
f 37/53/6 19/52/6 23/32/6 39/31/6
f 54/57/3 20/56/3 24/28/3 55/27/3
f 20/61/4 18/60/4 22/26/4 24/25/4
f 14/43/4 16/42/4 28/59/4 26/58/4
f 53/39/3 14/38/3 26/55/3 56/54/3
f 35/62/6 13/63/6 25/51/6 42/50/6
f 17/49/2 19/48/2 25/45/2 27/44/2
f 46/1/6 35/62/6 42/50/6 49/64/6
f 15/65/3 36/66/3 41/67/3 27/68/3
f 17/69/3 38/70/3 40/71/3 21/72/3
f 47/73/6 37/53/6 39/31/6 48/74/6
f 27/68/3 41/67/3 38/70/3 17/69/3
f 49/64/6 42/50/6 37/53/6 47/73/6
f 6/12/3 29/75/3 36/66/3 15/65/3
f 35/62/1 46/1/1 68/4/1 72/76/1
f 48/74/6 39/31/6 34/34/6 45/77/6
f 21/72/3 40/71/3 33/78/3 9/79/3
f 6/80/5 5/81/5 32/82/5 29/83/5
f 9/79/3 33/78/3 31/84/3 8/85/3
f 43/86/1 51/87/1 30/6/1 31/5/1
f 30/6/1 51/87/1 69/88/1 57/89/1
f 16/42/4 1/41/4 64/90/4 67/91/4
f 4/92/1 3/93/1 51/87/1 43/86/1
f 22/94/6 48/74/6 45/77/6 10/95/6
f 45/77/5 34/34/5 71/96/5 66/97/5
f 28/98/6 49/64/6 47/73/6 18/99/6
f 18/99/6 47/73/6 48/74/6 22/94/6
f 16/2/6 46/1/6 49/64/6 28/98/6
f 36/66/3 53/39/3 56/54/3 41/67/3
f 38/70/3 54/57/3 55/27/3 40/71/3
f 41/67/3 56/54/3 54/57/3 38/70/3
f 29/75/3 50/37/3 53/39/3 36/66/3
f 40/71/3 55/27/3 52/13/3 33/78/3
f 29/83/5 32/82/5 44/22/5 50/21/5
f 33/78/3 52/13/3 43/16/3 31/84/3
f 71/96/6 65/100/6 58/101/6 57/102/6
f 70/103/6 62/104/6 61/105/6 72/76/6
f 63/106/6 70/103/6 72/76/6 68/4/6
f 66/97/6 71/96/6 57/102/6 69/107/6
f 59/108/6 66/97/6 69/107/6 60/109/6
f 64/110/6 63/106/6 68/4/6 67/3/6
f 1/23/5 44/22/5 63/111/5 64/112/5
f 32/82/5 5/81/5 62/113/5 70/114/5
f 10/95/5 45/77/5 66/97/5 59/108/5
f 34/34/5 11/33/5 65/100/5 71/96/5
f 7/7/1 30/6/1 57/89/1 58/115/1
f 13/63/1 35/62/1 72/76/1 61/105/1
f 51/87/1 3/93/1 60/116/1 69/88/1
f 11/29/2 7/7/2 58/115/2 65/117/2
f 3/19/4 10/18/4 59/118/4 60/119/4
f 44/22/5 32/82/5 70/114/5 63/111/5
