# Blender v2.83.2 OBJ File: 'KenneyHousesAndRoads.blend'
# www.blender.org
mtllib SmallHouse1.mtl
o Mesh1_Group1_Model.452_Mesh1_Group1_Model.469
v -0.105633 1.545899 -0.351366
v -0.105633 1.545899 0.351366
v -0.008254 1.545899 0.351366
v -0.008254 1.545899 -0.351366
v -0.105633 1.419359 -0.477906
v -0.105633 1.419359 0.477906
v -0.105633 1.697690 0.351366
v -0.105633 1.783440 0.477906
v -0.105633 1.974129 0.000000
v 0.671071 1.783440 0.477906
v 1.077875 1.974129 0.000000
v 1.526875 2.184598 0.973789
v -0.554637 1.208890 0.973789
v -0.554637 1.208890 -0.973789
v 1.526875 2.184598 -0.973789
v 0.671071 1.783440 -0.477906
v -0.105633 1.783440 -0.477906
v 0.878813 1.880818 -0.477906
v -0.203012 1.783440 -0.477906
v -0.203012 1.880818 -0.477906
v 0.878813 1.880818 0.477906
v -0.203012 1.880818 0.477906
v -0.203012 1.783440 0.477906
v 1.285615 2.071508 0.000000
v -0.203012 2.071508 0.000000
v -0.203012 1.974129 0.000000
v -0.105633 1.837886 0.000000
v -0.008254 1.837886 0.000000
v -0.008254 1.697690 0.351366
v -0.105633 1.697690 -0.351366
v -0.008254 1.697690 -0.351366
v 1.624254 2.184598 0.973789
v 1.624254 2.184598 -0.973789
v -0.499677 1.091630 0.973789
v -0.323324 1.174292 0.973789
v 1.624254 2.087219 0.973789
v -0.499677 1.091630 -0.973789
v 1.624254 2.087219 -0.973789
v -0.323324 1.174292 -0.973789
v 1.624254 1.174292 -0.973789
v 1.624254 1.174292 0.973789
v 1.624254 -0.042944 -0.973789
v 1.624254 1.174292 -0.973789
v 1.624254 1.174292 0.973789
v 1.624254 -0.042944 0.973789
v -0.323324 -0.042944 -0.973789
v -0.323324 1.174292 -0.973789
v -0.323324 0.109210 -0.791203
v -0.323324 0.109210 -0.426033
v -0.323324 -0.042944 -0.243447
v -0.323324 0.748259 -0.426033
v -0.323324 0.795515 -0.432253
v -0.323324 0.930845 -0.243447
v -0.323324 0.839552 -0.450494
v -0.323324 0.877366 -0.479511
v -0.323324 0.906383 -0.517325
v -0.323324 0.930845 0.243447
v -0.323324 0.906383 0.517325
v -0.323324 0.924624 0.561362
v -0.323324 0.930845 0.608618
v -0.323324 0.924624 0.655874
v -0.323324 1.174292 0.973789
v -0.323324 0.906383 0.699911
v -0.323324 0.877366 0.737725
v -0.323324 0.839552 0.766742
v -0.323324 0.795515 0.784982
v -0.323324 -0.042944 0.973789
v -0.323324 0.748259 0.791203
v -0.128566 0.795515 0.784982
v -0.128566 0.748259 0.791203
v -0.128566 0.839552 0.766742
v -0.128566 0.877366 0.737725
v -0.128566 0.906383 0.699911
v -0.128566 0.924624 0.655874
v -0.128566 0.930845 0.608618
v -0.128566 0.924624 0.561362
v -0.128566 0.906383 0.517325
v -0.323324 0.877366 0.479511
v -0.128566 0.877366 0.479511
v -0.323324 0.839552 0.450494
v -0.323324 0.795515 0.432253
v -0.323324 0.748259 0.426033
v -0.323324 0.109210 0.426033
v -0.323324 -0.042944 0.243447
v -0.323324 0.109210 0.791203
v -0.128566 0.109210 0.791203
v -0.128566 0.839552 0.450494
v -0.128566 0.795515 0.432253
v -0.128566 0.748259 0.426033
v -0.128566 0.109210 0.426033
v -0.128566 -0.042944 0.243447
v -0.128566 -0.042944 -0.243447
v -0.128566 0.930845 0.243447
v -0.128566 0.930845 -0.243447
v -0.323324 0.924624 -0.561362
v -0.323324 0.930845 -0.608618
v -0.323324 0.924624 -0.655874
v -0.323324 0.906383 -0.699911
v -0.323324 0.877366 -0.737725
v -0.323324 0.839552 -0.766742
v -0.323324 0.795515 -0.784983
v -0.323324 0.748259 -0.791203
v -0.128566 0.109210 -0.791203
v -0.128566 0.748259 -0.791203
v -0.128566 0.109210 -0.426033
v -0.128566 0.748259 -0.426033
v -0.128566 0.795515 -0.432253
v -0.128566 0.839552 -0.450494
v -0.128566 0.877366 -0.479511
v -0.128566 0.906383 -0.517325
v -0.128566 0.924624 -0.561362
v -0.128566 0.930845 -0.608618
v -0.128566 0.924624 -0.655874
v -0.128566 0.906383 -0.699911
v -0.128566 0.877366 -0.737725
v -0.128566 0.839552 -0.766742
v -0.128566 0.795515 -0.784983
v -0.128575 0.930845 -0.243447
v -0.225954 0.930845 -0.243447
v -0.225954 0.930845 0.243447
v -0.128575 0.930845 0.243447
v -0.128575 -0.042944 -0.243447
v -0.225954 -0.042944 -0.243447
v -0.128575 -0.042944 0.243447
v -0.225954 -0.042944 0.243447
v -0.225954 0.825216 0.137819
v -0.225954 0.825216 -0.137818
v -0.225954 0.443950 -0.137818
v -0.225954 0.443950 0.137819
v -0.177264 0.825216 0.137819
v -0.177264 0.443950 0.137819
v -0.177264 0.825216 -0.137818
v -0.177264 0.443950 -0.137818
vt -34.969501 26.787901
vt -34.969501 12.582200
vt -33.000999 12.582200
vt -33.000999 26.787901
vt -29.345900 4.954010
vt -12.582200 7.512010
vt -26.787901 7.512010
vt -10.024200 4.954010
vt -12.582200 10.580400
vt -10.024200 12.313900
vt -19.684999 16.168600
vt 34.969501 12.313900
vt 19.268499 12.313900
vt 34.969501 4.954010
vt -19.268499 12.313900
vt -34.969501 12.313900
vt -34.969501 4.954010
vt -19.684999 13.414500
vt -29.345900 12.313900
vt 34.969501 15.607300
vt 34.969501 23.254700
vt 33.000999 23.254700
vt 33.000999 15.607300
vt -34.969501 -13.312000
vt -34.969501 -20.959299
vt -33.000999 -20.959299
vt -33.000999 -13.312000
vt -26.787901 10.580400
vt -34.969501 10.580400
vt -34.969501 7.512010
vt -33.000999 7.512010
vt -33.000999 10.580400
vt 34.969501 7.512010
vt 34.969501 10.580400
vt 33.000999 10.580400
vt 33.000999 7.512010
vt 0.000000 -0.000000
vt 39.370098 -0.000000
vt 0.000000 18.454700
vt 0.000000 0.000000
vt 39.370098 0.000000
vt 39.370098 39.370098
vt 0.000000 39.370098
vt 0.000000 18.454700
vt -39.370098 0.000000
vt 39.370098 0.000000
vt 39.370098 18.454700
vt 39.370098 20.423201
vt 0.000000 20.423201
vt -19.268499 13.873900
vt -11.045000 24.275400
vt -34.969501 24.275400
vt -34.969501 13.873900
vt -10.024200 -12.220400
vt -0.000000 6.885910
vt -19.684999 -3.138290
vt -10.024200 -29.560801
vt -0.000000 -39.584999
vt -39.370098 -39.584999
vt -29.345900 -29.560801
vt -39.370098 6.885910
vt -29.345900 -12.220400
vt 15.069000 14.282400
vt 36.938000 12.313900
vt 36.938000 14.282400
vt 11.045000 -12.291300
vt 19.268499 -22.692801
vt 34.969501 -22.692801
vt 34.969501 -12.291300
vt -15.069000 14.282400
vt -36.938000 14.282400
vt -36.938000 12.313900
vt -15.069000 14.603400
vt -6.845530 25.004900
vt -36.938000 25.004900
vt -36.938000 14.603400
vt 6.845530 -11.561800
vt 15.069000 -21.963301
vt 36.938000 -21.963301
vt 36.938000 -11.561800
vt -10.024200 14.282400
vt -19.684999 18.137100
vt -29.345900 14.282400
vt -29.345900 12.313900
vt -19.684999 16.168600
vt -10.024200 12.313900
vt -34.969501 -22.692801
vt -34.969501 -12.291300
vt -36.938000 -12.291300
vt -36.938000 -22.692801
vt 34.969501 24.275400
vt 34.969501 13.873900
vt 36.938000 13.873900
vt 36.938000 24.275400
vt -1.968500 39.370098
vt -1.968500 0.000000
vt 0.000000 0.000000
vt 0.000000 39.370098
vt -1.968500 20.423201
vt -44.046001 0.699401
vt -42.934898 -1.671000
vt 0.000000 16.709999
vt 0.000000 19.327900
vt -39.370098 19.327900
vt -39.370098 16.709999
vt 42.934898 -1.671000
vt 44.046001 0.699401
vt 1.968500 20.423201
vt 0.000000 20.423201
vt 39.370098 -35.647999
vt 0.000000 -35.647999
vt 0.000000 -39.584999
vt 39.370098 -39.584999
vt -12.582200 10.580400
vt -19.684999 13.414500
vt -26.787901 10.580400
vt -26.787901 7.512010
vt -12.582200 7.512010
vt 39.370098 0.000000
vt 39.370098 24.606300
vt 0.000000 24.606300
vt 0.000000 0.000000
vt 0.000000 0.000000
vt 0.000000 24.606300
vt -39.370098 24.606300
vt -39.370098 0.000000
vt -39.370098 0.000000
vt -35.679100 3.075790
vt -39.370098 24.606300
vt -28.297199 3.075790
vt -24.606300 0.000000
vt -28.297199 15.994100
vt -28.423000 16.949400
vt -24.606300 19.684999
vt -28.791700 17.839600
vt -29.378300 18.604000
vt -30.142700 19.190500
vt -14.763800 19.684999
vt -9.227360 19.190500
vt -8.337180 19.559299
vt -7.381890 19.684999
vt -6.426600 19.559299
vt 0.000000 24.606300
vt -5.536420 19.190500
vt -4.772000 18.604000
vt -4.185440 17.839600
vt -3.816710 16.949400
vt 0.000000 0.000000
vt -3.690940 15.994100
vt 0.000000 16.339001
vt 0.000000 17.302601
vt -3.937010 17.302601
vt -3.937010 16.339001
vt 0.000000 17.119801
vt 0.000000 18.083300
vt -3.937010 18.083300
vt -3.937010 17.119801
vt 0.000000 16.701000
vt 0.000000 17.664499
vt -3.937010 17.664499
vt -3.937010 16.701000
vt 0.000000 15.111300
vt 0.000000 16.074800
vt -3.937010 16.074800
vt -3.937010 15.111300
vt 0.000000 12.458900
vt 0.000000 13.422400
vt -3.937010 13.422400
vt -3.937010 12.458900
vt 0.000000 8.924620
vt 0.000000 9.888150
vt -3.937010 9.888150
vt -3.937010 8.924620
vt 0.000000 -4.749320
vt 0.000000 -5.712850
vt 3.937010 -5.712850
vt 3.937010 -4.749320
vt 0.000000 -0.217537
vt 0.000000 -1.181070
vt 3.937010 -1.181070
vt 3.937010 -0.217537
vt 0.000000 4.361910
vt 0.000000 3.398380
vt 3.937010 3.398380
vt 3.937010 4.361910
vt -9.991780 18.604000
vt -10.578300 17.839600
vt -10.947100 16.949400
vt -11.072800 15.994100
vt -11.072800 3.075790
vt -14.763800 0.000000
vt -3.690940 3.075790
vt 0.000000 3.075790
vt 0.000000 15.994100
vt -3.937010 15.994100
vt -3.937010 3.075790
vt 0.000000 8.676920
vt 0.000000 7.713390
vt 3.937010 7.713390
vt 3.937010 8.676920
vt 0.000000 12.433500
vt 0.000000 11.469900
vt 3.937010 11.469900
vt 3.937010 12.433500
vt 0.000000 15.375500
vt 0.000000 14.412000
vt 3.937010 14.412000
vt 3.937010 15.375500
vt 0.000000 15.994100
vt 0.000000 3.075790
vt 3.937010 3.075790
vt 3.937010 15.994100
vt 0.000000 11.072800
vt 0.000000 3.690940
vt 3.937010 3.690940
vt 3.937010 11.072800
vt -39.370098 0.000000
vt 0.000000 14.763800
vt -3.937010 14.763800
vt -3.937010 24.606300
vt 0.000000 24.606300
vt 0.000000 39.370098
vt -39.370098 39.370098
vt 39.370098 0.000000
vt 39.370098 24.606300
vt 39.370098 39.370098
vt -0.000000 39.370098
vt -0.000000 0.000000
vt 39.370098 0.000000
vt 0.000000 0.000000
vt 0.000000 19.684999
vt -3.937010 19.684999
vt -3.937010 0.000000
vt 0.000000 14.763800
vt 0.000000 24.606300
vt -3.937010 24.606300
vt -3.937010 14.763800
vt 0.000000 19.684999
vt 0.000000 0.000000
vt 3.937010 0.000000
vt 3.937010 19.684999
vt -31.032900 19.559299
vt -31.988199 19.684999
vt -32.943501 19.559299
vt -33.833698 19.190500
vt -34.598099 18.604000
vt -35.184601 17.839600
vt -35.553398 16.949400
vt -35.679100 15.994100
vt 0.000000 15.994100
vt 0.000000 3.075790
vt 3.937010 3.075790
vt 3.937010 15.994100
vt 0.000000 35.679100
vt 0.000000 28.297199
vt 3.937010 28.297199
vt 3.937010 35.679100
vt 0.000000 3.075790
vt 0.000000 15.994100
vt -3.937010 15.994100
vt -3.937010 3.075790
vt 0.000000 19.550800
vt 0.000000 20.514299
vt -3.937010 20.514299
vt -3.937010 19.550800
vt 0.000000 26.536200
vt 0.000000 27.499701
vt -3.937010 27.499701
vt -3.937010 26.536200
vt 0.000000 31.680401
vt 0.000000 32.643902
vt -3.937010 32.643902
vt -3.937010 31.680401
vt 0.000000 34.632801
vt 0.000000 35.596298
vt -3.937010 35.596298
vt -3.937010 34.632801
vt 0.000000 35.192101
vt 0.000000 36.155701
vt -3.937010 36.155701
vt -3.937010 35.192101
vt 0.000000 33.320400
vt 0.000000 34.283901
vt -3.937010 34.283901
vt -3.937010 33.320400
vt 0.000000 -29.145100
vt 0.000000 -30.108601
vt 3.937010 -30.108601
vt 3.937010 -29.145100
vt 0.000000 -22.950800
vt 0.000000 -23.914301
vt 3.937010 -23.914301
vt 3.937010 -22.950800
vt 0.000000 -15.159600
vt 0.000000 -16.123100
vt 3.937010 -16.123100
vt 3.937010 -15.159600
vt 0.000000 -6.302440
vt 0.000000 -7.265970
vt 3.937010 -7.265970
vt 3.937010 -6.302440
vt 0.000000 3.017030
vt 0.000000 2.053500
vt 3.937010 2.053500
vt 3.937010 3.017030
vt 0.000000 12.163700
vt 0.000000 11.200200
vt 3.937010 11.200200
vt 3.937010 12.163700
vt -3.690940 3.075790
vt -3.690940 15.994100
vt -3.816710 16.949400
vt -4.185440 17.839600
vt -4.772000 18.604000
vt -5.536420 19.190500
vt -6.426600 19.559299
vt -7.381890 19.684999
vt -8.337180 19.559299
vt -9.227360 19.190500
vt -9.991780 18.604000
vt -10.578300 17.839600
vt -10.947100 16.949400
vt -11.072800 15.994100
vt -11.072800 3.075790
vt -14.763800 19.684999
vt -24.606300 19.684999
vt -24.606300 0.000000
vt -14.763800 0.000000
vt -28.297199 3.075790
vt -28.297199 15.994100
vt -28.423000 16.949400
vt -28.791700 17.839600
vt -29.378300 18.604000
vt -30.142700 19.190500
vt -31.032900 19.559299
vt -31.988199 19.684999
vt -32.943501 19.559299
vt -33.833698 19.190500
vt -34.598099 18.604000
vt -35.184601 17.839600
vt -35.553398 16.949400
vt -35.679100 15.994100
vt -35.679100 3.075790
vt 1.968500 9.842520
vt 0.000000 9.842520
vt 0.000000 0.000000
vt 1.968500 0.000000
vt -1.968500 0.000000
vt 0.000000 0.000000
vt 0.000000 19.684999
vt -1.968500 19.684999
vt 0.000000 9.842520
vt -1.968500 9.842520
vt -1.968500 0.000000
vt 0.000000 0.000000
vt 0.000000 0.000000
vt 9.842520 0.000000
vt 9.842520 19.684999
vt 0.000000 19.684999
vt 1.968500 0.000000
vt 1.968500 19.684999
vt 0.000000 19.684999
vt -2.135270 17.549801
vt -9.842520 19.684999
vt -7.707250 17.549801
vt -7.707250 9.842520
vt -9.842520 0.000000
vt -2.135270 9.842520
vt 0.000000 9.842520
vt 0.000000 17.549801
vt -0.984252 17.549801
vt -0.984252 9.842520
vt 0.000000 2.135270
vt 0.000000 7.707250
vt -0.984252 7.707250
vt -0.984252 2.135270
vt 0.000000 17.549801
vt 0.000000 9.842520
vt 0.984252 9.842520
vt 0.984252 17.549801
vt 0.000000 7.707250
vt 0.000000 2.135270
vt 0.984252 2.135270
vt 0.984252 7.707250
vt -2.135270 17.549801
vt -7.707250 17.549801
vt -7.707250 9.842520
vt -2.135270 9.842520
vn 0.0000 1.0000 0.0000
vn -1.0000 0.0000 0.0000
vn 0.0000 0.0000 -1.0000
vn 0.0000 0.0000 1.0000
vn 0.0000 -0.9288 -0.3706
vn 0.0000 -0.9288 0.3706
vn 0.0000 -1.0000 -0.0000
vn 1.0000 0.0000 0.0000
vn 0.0000 0.9288 0.3706
vn -0.4244 0.9055 0.0000
vn 0.0000 0.9288 -0.3706
vn -0.9055 -0.4244 -0.0000
vn 0.4244 -0.9055 -0.0000
vn 0.0000 -0.1305 -0.9914
vn 0.0000 -0.2588 -0.9659
vn 0.0000 -0.5000 -0.8660
vn 0.0000 -0.7071 -0.7071
vn 0.0000 -0.8660 -0.5000
vn 0.0000 -0.9659 -0.2588
vn 0.0000 -0.9659 0.2588
vn 0.0000 -0.8660 0.5000
vn 0.0000 -0.7071 0.7071
vn 0.0000 -0.5000 0.8660
vn 0.0000 -0.2588 0.9659
vn 0.0000 -0.1305 0.9914
usemtl Brick.058
s 1
f 1/1/1 2/2/1 3/3/1 4/4/1
f 5/5/2 2/6/2 1/7/2
f 6/8/2 2/6/2 5/5/2
f 2/6/2 6/8/2 7/9/2
f 8/10/2 7/9/2 6/8/2
f 7/9/2 8/10/2 9/11/2
f 17/12/3 16/13/3 5/14/3
f 10/15/4 8/16/4 6/17/4
f 27/18/2 9/11/2 17/19/2
f 7/9/2 9/11/2 27/18/2
f 7/20/5 27/21/5 28/22/5 29/23/5
f 27/24/6 30/25/6 31/26/6 28/27/6
f 27/18/2 17/19/2 30/28/2
f 30/28/2 17/19/2 1/7/2
f 5/5/2 1/7/2 17/19/2
f 30/29/4 1/30/4 4/31/4 31/32/4
f 2/33/3 7/34/3 29/35/3 3/36/3
f 40/37/3 39/38/3 38/39/3
f 41/40/7 35/41/7 39/42/7 40/43/7
f 41/40/4 36/44/4 35/45/4
f 40/46/8 38/47/8 33/48/8 32/49/8 36/44/8 41/40/8
usemtl Roof.007
f 10/50/9 11/51/9 9/52/9 8/53/9
f 10/54/10 12/55/10 11/56/10
f 6/57/10 12/55/10 10/54/10
f 6/57/10 13/58/10 12/55/10
f 13/58/10 6/57/10 14/59/10
f 5/60/10 14/59/10 6/57/10
f 14/59/10 5/60/10 15/61/10
f 15/61/10 5/60/10 16/62/10
f 18/63/3 16/13/3 17/12/3 19/64/3 20/65/3
f 11/66/11 16/67/11 17/68/11 9/69/11
f 15/61/10 16/62/10 11/56/10
f 10/54/10 11/56/10 16/62/10 5/60/10 6/57/10
f 10/15/4 21/70/4 22/71/4 23/72/4 8/16/4
f 21/73/9 24/74/9 25/75/9 22/76/9
f 24/77/11 18/78/11 20/79/11 25/80/11
f 22/81/2 25/82/2 20/83/2 19/84/2 26/85/2 23/86/2
f 17/87/6 9/88/6 26/89/6 19/90/6
f 9/91/5 8/92/5 23/93/5 26/94/5
f 15/61/10 11/56/10 12/55/10
f 15/95/1 12/96/1 32/97/1 33/98/1
f 12/99/4 13/100/4 34/101/4 35/45/4 36/44/4 32/49/4
f 34/102/12 13/103/12 14/104/12 37/105/12
f 38/39/3 39/38/3 37/106/3 14/107/3 15/108/3 33/109/3
f 39/110/13 35/111/13 34/112/13 37/113/13
usemtl Glass.032
f 29/114/2 28/115/2 31/116/2 4/117/2 3/118/2
usemtl Brick.048
f 42/119/8 43/120/8 44/121/8 45/122/8
f 46/123/3 47/124/3 43/125/3 42/126/3
f 46/127/2 48/128/2 47/129/2
f 46/127/2 49/130/2 48/128/2
f 50/131/2 49/130/2 46/127/2
f 49/130/2 50/131/2 51/132/2
f 50/131/2 52/133/2 51/132/2
f 53/134/2 52/133/2 50/131/2
f 53/134/2 54/135/2 52/133/2
f 53/134/2 55/136/2 54/135/2
f 53/134/2 56/137/2 55/136/2
f 53/134/2 47/129/2 56/137/2
f 57/138/2 47/129/2 53/134/2
f 58/139/2 47/129/2 57/138/2
f 59/140/2 47/129/2 58/139/2
f 60/141/2 47/129/2 59/140/2
f 61/142/2 47/129/2 60/141/2
f 61/142/2 62/143/2 47/129/2
f 63/144/2 62/143/2 61/142/2
f 64/145/2 62/143/2 63/144/2
f 65/146/2 62/143/2 64/145/2
f 66/147/2 62/143/2 65/146/2
f 62/143/2 66/147/2 67/148/2
f 67/148/2 66/147/2 68/149/2
f 68/150/14 66/151/15 69/152/15 70/153/14
f 66/154/15 65/155/16 71/156/16 69/157/15
f 65/158/16 64/159/17 72/160/17 71/161/16
f 64/162/17 63/163/18 73/164/18 72/165/17
f 63/166/18 61/167/19 74/168/19 73/169/18
f 61/170/19 60/171/7 75/172/7 74/173/19
f 60/174/7 59/175/20 76/176/20 75/177/7
f 59/178/20 58/179/21 77/180/21 76/181/20
f 58/182/21 78/183/22 79/184/22 77/185/21
f 58/139/2 57/138/2 78/186/2
f 78/186/2 57/138/2 80/187/2
f 80/187/2 57/138/2 81/188/2
f 81/188/2 57/138/2 82/189/2
f 82/189/2 57/138/2 83/190/2
f 84/191/2 83/190/2 57/138/2
f 84/191/2 85/192/2 83/190/2
f 67/148/2 85/192/2 84/191/2
f 85/192/2 67/148/2 68/149/2
f 85/193/3 68/194/3 70/195/3 86/196/3
f 78/197/22 80/198/23 87/199/23 79/200/22
f 80/201/23 81/202/24 88/203/24 87/204/23
f 81/205/24 82/206/25 89/207/25 88/208/24
f 82/209/4 83/210/4 90/211/4 89/212/4
f 83/213/1 85/214/1 86/215/1 90/216/1
f 45/217/7 67/148/7 84/218/7 91/219/7 92/220/7 50/221/7 46/222/7 42/223/7
f 45/224/4 44/225/4 62/143/4 67/148/4
f 43/226/1 47/227/1 62/228/1 44/229/1
f 84/230/3 57/231/3 93/232/3 91/233/3
f 57/234/7 53/235/7 94/236/7 93/237/7
f 53/238/4 50/239/4 92/240/4 94/241/4
f 56/137/2 47/129/2 95/242/2
f 95/242/2 47/129/2 96/243/2
f 96/243/2 47/129/2 97/244/2
f 97/244/2 47/129/2 98/245/2
f 98/245/2 47/129/2 99/246/2
f 99/246/2 47/129/2 100/247/2
f 100/247/2 47/129/2 101/248/2
f 101/248/2 47/129/2 102/249/2
f 102/249/2 47/129/2 48/128/2
f 102/250/4 48/251/4 103/252/4 104/253/4
f 48/254/1 49/255/1 105/256/1 103/257/1
f 49/258/3 51/259/3 106/260/3 105/261/3
f 51/262/14 52/263/15 107/264/15 106/265/14
f 52/266/15 54/267/16 108/268/16 107/269/15
f 54/270/16 55/271/17 109/272/17 108/273/16
f 55/274/17 56/275/18 110/276/18 109/277/17
f 56/278/18 95/279/19 111/280/19 110/281/18
f 95/282/19 96/283/7 112/284/7 111/285/19
f 96/286/7 97/287/20 113/288/20 112/289/7
f 97/290/20 98/291/21 114/292/21 113/293/20
f 98/294/21 99/295/22 115/296/22 114/297/21
f 99/298/22 100/299/23 116/300/23 115/301/22
f 100/302/23 101/303/24 117/304/24 116/305/23
f 101/306/24 102/307/25 104/308/25 117/309/24
usemtl Glass.023
f 86/310/2 70/311/2 69/312/2 71/313/2 72/314/2 73/315/2 74/316/2 75/317/2 76/318/2 77/319/2 79/320/2 87/321/2 88/322/2 89/323/2 90/324/2
f 93/325/2 94/326/2 92/327/2 91/328/2
f 105/329/2 106/330/2 107/331/2 108/332/2 109/333/2 110/334/2 111/335/2 112/336/2 113/337/2 114/338/2 115/339/2 116/340/2 117/341/2 104/342/2 103/343/2
usemtl Metal.001
f 118/344/1 119/345/1 120/346/1 121/347/1
f 122/348/3 123/349/3 119/350/3 118/351/3
f 123/352/7 122/353/7 124/354/7 125/355/7
f 124/356/8 122/357/8 118/358/8 121/359/8
f 125/355/4 124/360/4 121/361/4 120/362/4
f 120/362/2 126/363/2 125/355/2
f 126/363/2 120/362/2 119/364/2
f 126/363/2 119/364/2 127/365/2
f 127/365/2 119/364/2 128/366/2
f 123/367/2 128/366/2 119/364/2
f 123/367/2 129/368/2 128/366/2
f 125/355/2 129/368/2 123/367/2
f 129/368/2 125/355/2 126/363/2
f 129/369/3 126/370/3 130/371/3 131/372/3
f 126/373/7 127/374/7 132/375/7 130/376/7
f 127/377/4 128/378/4 133/379/4 132/380/4
f 128/381/1 129/382/1 131/383/1 133/384/1
usemtl Glass.038
f 130/385/2 132/386/2 133/387/2 131/388/2
