# Blender v2.80 (sub 75) OBJ File: 'turn 8x8x0.5.blend'
# www.blender.org
mtllib turn 8x8x0.5.mtl
o Cube
v 8.000000 0.500000 -8.000000
v 8.000000 -0.500000 -8.000000
v 8.000000 0.500000 8.000000
v 8.000000 -0.500000 8.000000
v -8.000000 0.500000 -8.000000
v -8.000000 -0.500000 -8.000000
v -8.000000 0.500000 8.000000
v -8.000000 -0.500000 8.000000
v -8.000000 -0.500000 7.680000
v 8.000000 0.500000 7.680000
v -8.000000 0.500000 7.680000
v 8.000000 -0.500000 7.680000
v -8.000000 0.500000 -7.686400
v 8.000000 -0.500000 -7.686400
v -8.000000 -0.500000 -7.686400
v 8.000000 0.500000 -7.686400
v -8.000000 -0.500000 -0.003200
v 8.000000 0.500000 -0.003200
v -8.000000 0.500000 -0.003200
v 8.000000 -0.500000 -0.003200
v -8.000000 -0.500000 3.838400
v 8.000000 0.500000 3.838400
v -8.000000 0.500000 3.838400
v 8.000000 -0.500000 3.838400
v -8.000000 0.500000 -3.844800
v 8.000000 -0.500000 -3.844800
v -8.000000 -0.500000 -3.844800
v 8.000000 0.500000 -3.844800
v -7.680000 -0.500000 -8.000000
v -7.680000 0.500000 8.000000
v -7.680000 -0.500000 8.000000
v -7.680000 0.500000 -8.000000
v -7.680000 -0.500000 7.680000
v -7.680000 0.500000 7.680000
v -7.680000 0.500000 -7.686400
v -7.680000 -0.500000 -7.686400
v -7.680000 0.500000 -0.003200
v -7.680000 -0.500000 -0.003200
v -7.680000 0.500000 3.838400
v -7.680000 -0.500000 3.838400
v -7.680000 -0.500000 -3.844800
v -7.680000 0.500000 -3.844800
v 7.686400 -0.500000 8.000000
v 7.686400 0.500000 -8.000000
v 7.686400 0.500000 7.680000
v 7.686400 0.500000 -7.686400
v 7.686400 0.500000 -0.003200
v 7.686400 0.500000 3.838400
v 7.686400 0.500000 -3.844800
v 7.686400 -0.500000 -8.000000
v 7.686400 0.500000 8.000000
v 7.686400 -0.500000 7.680000
v 7.686400 -0.500000 -7.686400
v 7.686400 -0.500000 -0.003200
v 7.686400 -0.500000 3.838400
v 7.686400 -0.500000 -3.844800
v 0.029999 -0.500000 -8.000000
v 0.029999 0.500000 8.000000
v 0.029999 -0.500000 7.680000
v 0.029999 -0.500000 -7.686400
v 0.029999 -0.500000 -0.003200
v 0.029999 -0.500000 3.838400
v 0.029999 -0.500000 -3.844800
v 0.029999 -0.500000 8.000000
v 0.029999 0.500000 -8.000000
v 0.029999 0.500000 7.680000
v 0.029999 0.500000 -7.686400
v 0.029999 0.500000 -0.003200
v 0.029999 0.500000 3.838400
v 0.029999 0.500000 -3.844800
v -3.825000 -0.500000 -8.000000
v -3.825000 0.500000 8.000000
v -3.825000 -0.500000 7.680000
v -3.825000 -0.500000 -7.686400
v -3.825000 -0.500000 -0.003200
v -3.825000 -0.500000 3.838400
v -3.825000 -0.500000 -3.844800
v -3.825000 -0.500000 8.000000
v -3.825000 0.500000 -8.000000
v -3.825000 0.500000 7.680000
v -3.825000 0.500000 -7.686400
v -3.825000 0.500000 -0.003200
v -3.825000 0.500000 3.838400
v -3.825000 0.500000 -3.844800
v 3.858200 -0.500000 8.000000
v 3.858200 0.500000 -8.000000
v 3.858200 0.500000 7.680000
v 3.858200 0.500000 -7.686400
v 3.858200 0.500000 -0.003200
v 3.858200 0.500000 3.838400
v 3.858200 0.500000 -3.844800
v 3.858200 -0.500000 -8.000000
v 3.858200 0.500000 8.000000
v 3.858200 -0.500000 7.680000
v 3.858200 -0.500000 -7.686400
v 3.858200 -0.500000 -0.003200
v 3.858200 -0.500000 3.838400
v 3.858200 -0.500000 -3.844800
v -7.680000 0.580000 8.000000
v -8.000000 0.580000 8.000000
v 8.000000 0.580000 7.680000
v 8.000000 0.580000 8.000000
v -8.000000 0.580000 -7.686400
v -8.000000 0.580000 -8.000000
v -8.000000 0.580000 7.680000
v 7.686400 0.580000 7.680000
v -8.000000 0.580000 -3.844800
v -8.000000 0.580000 3.838400
v -8.000000 0.580000 -0.003200
v -3.825000 0.580000 8.000000
v -7.680000 0.580000 -8.000000
v -7.680000 0.580000 7.680000
v -7.680000 0.580000 -7.686400
v -7.680000 0.580000 -0.003200
v -7.680000 0.580000 3.838400
v -7.680000 0.580000 -3.844800
v 3.858200 0.580000 7.680000
v 7.686400 0.580000 8.000000
v 3.858200 0.580000 8.000000
v 0.029999 0.580000 8.000000
v -3.825000 0.580000 7.680000
v 0.029999 0.580000 7.680000
vt 0.620000 0.124950
vt 0.620000 0.064925
vt 0.620000 0.064925
vt 0.620000 0.124950
vt 0.375000 0.495000
vt 0.625000 0.495000
vt 0.625000 0.500000
vt 0.375000 0.500000
vt 0.375000 0.745100
vt 0.625000 0.745100
vt 0.625000 0.750000
vt 0.375000 0.750000
vt 0.620100 0.995000
vt 0.625000 0.995000
vt 0.625000 1.000000
vt 0.620100 1.000000
vt 0.125000 0.745000
vt 0.375000 0.745000
vt 0.375000 0.750000
vt 0.125000 0.750000
vt 0.625000 0.745100
vt 0.875000 0.745100
vt 0.875000 0.750000
vt 0.625000 0.750000
vt 0.125000 0.684975
vt 0.375000 0.684975
vt 0.620100 0.934975
vt 0.625000 0.934975
vt 0.625000 0.505000
vt 0.375000 0.505000
vt 0.559766 0.245000
vt 0.620000 0.245000
vt 0.620000 0.245000
vt 0.559766 0.245000
vt 0.375000 0.245000
vt 0.379900 0.245000
vt 0.379900 0.245000
vt 0.375000 0.245000
vt 0.620100 0.750000
vt 0.625000 0.754900
vt 0.620100 0.754900
vt 0.125000 0.500000
vt 0.375000 0.500000
vt 0.375000 0.504900
vt 0.125000 0.504900
vt 0.375000 0.685075
vt 0.625000 0.685075
vt 0.375000 0.565025
vt 0.625000 0.565025
vt 0.625000 0.625050
vt 0.375000 0.625050
vt 0.625000 0.434766
vt 0.625000 0.374531
vt 0.625000 0.374531
vt 0.625000 0.434766
vt 0.620100 0.814925
vt 0.625000 0.814925
vt 0.625000 0.874950
vt 0.620100 0.874950
vt 0.125000 0.564925
vt 0.375000 0.564925
vt 0.375000 0.624950
vt 0.125000 0.624950
vt 0.875000 0.505000
vt 0.875000 0.500000
vt 0.875000 0.500000
vt 0.875000 0.505000
vt 0.439716 0.245000
vt 0.499531 0.245000
vt 0.499531 0.245000
vt 0.439716 0.245000
vt 0.559766 0.004900
vt 0.620000 0.004900
vt 0.559766 0.064925
vt 0.375000 0.754900
vt 0.380000 0.754900
vt 0.380000 0.814925
vt 0.375000 0.814925
vt 0.375000 0.874950
vt 0.380000 0.874950
vt 0.380000 0.934975
vt 0.375000 0.934975
vt 0.559766 0.124950
vt 0.620000 0.184975
vt 0.559766 0.184975
vt 0.380000 0.750000
vt 0.559766 0.000000
vt 0.620000 0.000000
vt 0.380000 0.995000
vt 0.375000 0.995000
vt 0.625000 0.500000
vt 0.625000 0.505000
vt 0.380000 1.000000
vt 0.375000 1.000000
vt 0.375000 0.434766
vt 0.620000 0.184975
vt 0.625000 0.314716
vt 0.625000 0.254900
vt 0.625000 0.254900
vt 0.625000 0.314716
vt 0.375000 0.250000
vt 0.625000 0.250000
vt 0.375000 0.254900
vt 0.375000 0.184975
vt 0.379900 0.184975
vt 0.375000 0.000000
vt 0.379900 0.000000
vt 0.379900 0.004900
vt 0.375000 0.004900
vt 0.375000 0.064925
vt 0.379900 0.064925
vt 0.379900 0.124950
vt 0.375000 0.124950
vt 0.560284 0.754900
vt 0.560284 0.814925
vt 0.560284 0.874950
vt 0.560284 0.934975
vt 0.560284 0.750000
vt 0.560284 0.995000
vt 0.625000 0.685284
vt 0.875000 0.685284
vt 0.560284 1.000000
vt 0.440234 0.995000
vt 0.500469 0.995000
vt 0.500469 1.000000
vt 0.440234 1.000000
vt 0.625000 0.565234
vt 0.875000 0.565234
vt 0.875000 0.625469
vt 0.625000 0.625469
vt 0.440234 0.934975
vt 0.500469 0.934975
vt 0.440234 0.750000
vt 0.500469 0.750000
vt 0.500469 0.754900
vt 0.440234 0.754900
vt 0.440234 0.814925
vt 0.500469 0.814925
vt 0.500469 0.874950
vt 0.440234 0.874950
vt 0.625000 0.745100
vt 0.625000 0.750000
vt 0.375000 0.314716
vt 0.375000 0.374531
vt 0.439716 0.184975
vt 0.499531 0.184975
vt 0.439716 0.000000
vt 0.499531 0.000000
vt 0.499531 0.004900
vt 0.439716 0.004900
vt 0.439716 0.064925
vt 0.499531 0.064925
vt 0.499531 0.124950
vt 0.439716 0.124950
vt 0.625000 0.495000
vt 0.625000 0.505000
vt 0.625000 0.565025
vt 0.625000 0.245000
vt 0.625000 0.250000
vt 0.620000 0.250000
vt 0.625000 0.184975
vt 0.620000 0.000000
vt 0.625000 0.000000
vt 0.625000 0.004900
vt 0.620000 0.004900
vt 0.625000 0.064925
vt 0.625000 0.124950
vt 0.559766 0.250000
vt 0.379900 0.250000
vt 0.375000 0.250000
vt 0.499531 0.250000
vt 0.439716 0.250000
vt 0.625000 0.685075
vt 0.625000 0.500000
vt 0.625000 0.250000
vt 0.375000 0.745000
vt 0.375000 0.750000
vt 0.625000 0.625050
vn 1.0000 0.0000 0.0000
vn 0.0000 0.0000 1.0000
vn -1.0000 0.0000 0.0000
vn 0.0000 -1.0000 0.0000
vn 0.0000 0.0000 -1.0000
vn 0.0000 1.0000 0.0000
usemtl Material
s off
f 37/1/1 42/2/1 116/3/1 114/4/1
f 31/5/2 30/6/2 7/7/2 8/8/2
f 15/9/3 13/10/3 5/11/3 6/12/3
f 52/13/4 12/14/4 4/15/4 43/16/4
f 12/17/1 10/18/1 3/19/1 4/20/1
f 50/21/5 44/22/5 1/23/5 2/24/5
f 24/25/1 22/26/1 10/18/1 12/17/1
f 55/27/4 24/28/4 12/14/4 52/13/4
f 8/8/3 7/7/3 11/29/3 9/30/3
f 80/31/5 34/32/5 112/33/5 121/34/5
f 10/35/5 45/36/5 106/37/5 101/38/5
f 50/39/4 2/24/4 14/40/4 53/41/4
f 2/42/1 1/43/1 16/44/1 14/45/1
f 27/46/3 25/47/3 13/10/3 15/9/3
f 21/48/3 23/49/3 19/50/3 17/51/3
f 72/52/2 58/53/2 120/54/2 110/55/2
f 56/56/4 26/57/4 20/58/4 54/59/4
f 26/60/1 28/61/1 18/62/1 20/63/1
f 9/30/3 11/29/3 23/49/3 21/48/3
f 32/64/5 5/65/5 104/66/5 111/67/5
f 54/59/4 20/58/4 24/28/4 55/27/4
f 20/63/1 18/62/1 22/26/1 24/25/1
f 14/45/1 16/44/1 28/61/1 26/60/1
f 53/41/4 14/40/4 26/57/4 56/56/4
f 87/68/5 66/69/5 122/70/5 117/71/5
f 17/51/3 19/50/3 25/47/3 27/46/3
f 81/72/6 35/73/6 42/2/6 84/74/6
f 15/75/4 36/76/4 41/77/4 27/78/4
f 17/79/4 38/80/4 40/81/4 21/82/4
f 82/83/6 37/1/6 39/84/6 83/85/6
f 27/78/4 41/77/4 38/80/4 17/79/4
f 84/74/6 42/2/6 37/1/6 82/83/6
f 6/12/4 29/86/4 36/76/4 15/75/4
f 79/87/6 32/88/6 35/73/6 81/72/6
f 83/85/6 39/84/6 34/32/6 80/31/6
f 21/82/4 40/81/4 33/89/4 9/90/4
f 6/91/5 5/65/5 32/64/5 29/92/5
f 9/90/4 33/89/4 31/93/4 8/94/4
f 78/95/2 72/52/2 30/6/2 31/5/2
f 39/84/1 37/1/1 114/4/1 115/96/1
f 93/97/2 51/98/2 118/99/2 119/100/2
f 4/101/2 3/102/2 51/98/2 43/103/2
f 22/104/6 48/105/6 45/36/6 10/35/6
f 1/106/6 44/107/6 46/108/6 16/109/6
f 28/110/6 49/111/6 47/112/6 18/113/6
f 18/113/6 47/112/6 48/105/6 22/104/6
f 16/109/6 46/108/6 49/111/6 28/110/6
f 95/114/4 53/41/4 56/56/4 98/115/4
f 96/116/4 54/59/4 55/27/4 97/117/4
f 98/115/4 56/56/4 54/59/4 96/116/4
f 92/118/4 50/39/4 53/41/4 95/114/4
f 97/117/4 55/27/4 52/13/4 94/119/4
f 92/120/5 86/121/5 44/22/5 50/21/5
f 94/119/4 52/13/4 43/16/4 85/122/4
f 73/123/4 59/124/4 64/125/4 78/126/4
f 71/127/5 79/128/5 65/129/5 57/130/5
f 76/131/4 62/132/4 59/124/4 73/123/4
f 71/133/4 57/134/4 60/135/4 74/136/4
f 77/137/4 63/138/4 61/139/4 75/140/4
f 75/140/4 61/139/4 62/132/4 76/131/4
f 74/136/4 60/135/4 63/138/4 77/137/4
f 5/11/3 13/10/3 103/141/3 104/142/3
f 85/143/2 93/97/2 58/53/2 64/144/2
f 90/145/6 69/146/6 66/69/6 87/68/6
f 86/147/6 65/148/6 67/149/6 88/150/6
f 91/151/6 70/152/6 68/153/6 89/154/6
f 89/154/6 68/153/6 69/146/6 90/145/6
f 88/150/6 67/149/6 70/152/6 91/151/6
f 36/76/4 74/136/4 77/137/4 41/77/4
f 38/80/4 75/140/4 76/131/4 40/81/4
f 41/77/4 77/137/4 75/140/4 38/80/4
f 29/86/4 71/133/4 74/136/4 36/76/4
f 40/81/4 76/131/4 73/123/4 33/89/4
f 29/92/5 32/64/5 79/128/5 71/127/5
f 33/89/4 73/123/4 78/126/4 31/93/4
f 30/6/2 72/52/2 110/55/2 99/155/2
f 64/144/2 58/53/2 72/52/2 78/95/2
f 69/146/6 83/85/6 80/31/6 66/69/6
f 65/148/6 79/87/6 81/72/6 67/149/6
f 70/152/6 84/74/6 82/83/6 68/153/6
f 68/153/6 82/83/6 83/85/6 69/146/6
f 67/149/6 81/72/6 84/74/6 70/152/6
f 46/108/6 88/150/6 91/151/6 49/111/6
f 47/112/6 89/154/6 90/145/6 48/105/6
f 49/111/6 91/151/6 89/154/6 47/112/6
f 44/107/6 86/147/6 88/150/6 46/108/6
f 48/105/6 90/145/6 87/68/6 45/36/6
f 43/103/2 51/98/2 93/97/2 85/143/2
f 23/49/3 11/29/3 105/156/3 108/157/3
f 59/124/4 94/119/4 85/122/4 64/125/4
f 57/130/5 65/129/5 86/121/5 92/120/5
f 62/132/4 97/117/4 94/119/4 59/124/4
f 57/134/4 92/118/4 95/114/4 60/135/4
f 63/138/4 98/115/4 96/116/4 61/139/4
f 61/139/4 96/116/4 97/117/4 62/132/4
f 60/135/4 95/114/4 98/115/4 63/138/4
f 112/33/6 105/158/6 100/159/6 99/160/6
f 115/96/6 108/161/6 105/158/6 112/33/6
f 111/162/6 104/163/6 103/164/6 113/165/6
f 116/3/6 107/166/6 109/167/6 114/4/6
f 114/4/6 109/167/6 108/161/6 115/96/6
f 113/165/6 103/164/6 107/166/6 116/3/6
f 121/34/6 112/33/6 99/160/6 110/168/6
f 101/38/6 106/37/6 118/169/6 102/170/6
f 117/71/6 122/70/6 120/171/6 119/172/6
f 122/70/6 121/34/6 110/168/6 120/171/6
f 106/37/6 117/71/6 119/172/6 118/169/6
f 13/10/3 25/47/3 107/173/3 103/141/3
f 58/53/2 93/97/2 119/100/2 120/54/2
f 66/69/5 80/31/5 121/34/5 122/70/5
f 7/7/2 30/6/2 99/155/2 100/174/2
f 35/73/1 32/88/1 111/162/1 113/165/1
f 51/98/2 3/102/2 102/175/2 118/99/2
f 11/29/3 7/7/3 100/174/3 105/156/3
f 42/2/1 35/73/1 113/165/1 116/3/1
f 3/19/1 10/18/1 101/176/1 102/177/1
f 25/47/3 19/50/3 109/178/3 107/173/3
f 34/32/1 39/84/1 115/96/1 112/33/1
f 19/50/3 23/49/3 108/157/3 109/178/3
f 45/36/5 87/68/5 117/71/5 106/37/5
