# Blender v2.81 (sub 16) OBJ File: 'trashcan2.blend'
# www.blender.org
mtllib trashlidlast.mtl
o Trash_Lid.001_Cube.002
v 0.663923 5.515055 -1.602851
v 0.338465 5.515055 -1.701578
v -0.000000 5.515055 -1.734914
v 0.963866 5.515055 -1.442528
v 1.226769 5.515055 -1.226769
v 1.442528 5.515055 -0.963866
v 1.602851 5.515055 -0.663923
v 1.701578 5.515055 -0.338465
v 1.734914 5.515055 0.000000
v 1.701578 5.515055 0.338465
v 1.602852 5.515055 0.663923
v 1.442528 5.515055 0.963867
v 1.226769 5.515055 1.226770
v 0.963866 5.515055 1.442529
v 0.663922 5.515055 1.602852
v 0.338464 5.515055 1.701578
v -0.000001 5.515055 1.734914
v -0.338466 5.515055 1.701578
v -0.663924 5.515055 1.602851
v -0.963867 5.515055 1.442528
v -1.226770 5.515055 1.226769
v -1.442529 5.515055 0.963866
v -1.602852 5.515055 0.663922
v -1.701578 5.515055 0.338464
v -1.734914 5.515055 -0.000001
v -1.701578 5.515055 -0.338467
v -1.602851 5.515055 -0.663924
v -1.442527 5.515055 -0.963868
v -1.226768 5.515055 -1.226771
v -0.963865 5.515055 -1.442529
v -0.663921 5.515055 -1.602852
v -0.338462 5.515055 -1.701578
v 0.177828 5.762292 -0.894001
v 0.348822 5.762292 -0.842130
v -0.000000 5.762292 -0.911515
v 0.506411 5.762292 -0.757897
v 0.644539 5.762292 -0.644538
v 0.757897 5.762292 -0.506410
v 0.842130 5.762292 -0.348822
v 0.894001 5.762292 -0.177828
v 0.911515 5.762292 0.000000
v 0.894001 5.762292 0.177828
v 0.842130 5.762292 0.348822
v 0.757897 5.762292 0.506411
v 0.644539 5.762292 0.644539
v 0.506411 5.762292 0.757898
v 0.348822 5.762292 0.842131
v 0.177828 5.762292 0.894001
v -0.000000 5.762292 0.911516
v -0.177828 5.762292 0.894001
v -0.348823 5.762292 0.842130
v -0.506412 5.762292 0.757897
v -0.644539 5.762292 0.644539
v -0.757898 5.762292 0.506411
v -0.842131 5.762292 0.348821
v -0.894001 5.762292 0.177827
v -0.911516 5.762292 -0.000001
v -0.894001 5.762292 -0.177829
v -0.842130 5.762292 -0.348823
v -0.757897 5.762292 -0.506411
v -0.644538 5.762292 -0.644539
v -0.506410 5.762292 -0.757898
v -0.348821 5.762292 -0.842131
v -0.177826 5.762292 -0.894001
v 0.338465 5.762292 -1.701578
v 0.663923 5.762292 -1.602851
v -0.000000 5.762292 -1.734914
v 0.963866 5.762292 -1.442528
v 1.226769 5.762292 -1.226769
v 1.442528 5.762292 -0.963866
v 1.602851 5.762292 -0.663923
v 1.701578 5.762292 -0.338465
v 1.734914 5.762292 0.000000
v 1.701578 5.762292 0.338465
v 1.602852 5.762292 0.663923
v 1.442528 5.762292 0.963867
v 1.226769 5.762292 1.226770
v 0.963866 5.762292 1.442529
v 0.663922 5.762292 1.602852
v 0.338464 5.762292 1.701578
v -0.000001 5.762292 1.734914
v -0.338466 5.762292 1.701578
v -0.663924 5.762292 1.602851
v -0.963867 5.762292 1.442528
v -1.226770 5.762292 1.226769
v -1.442529 5.762292 0.963866
v -1.602852 5.762292 0.663922
v -1.701578 5.762292 0.338464
v -1.734914 5.762292 -0.000001
v -1.701578 5.762292 -0.338467
v -1.602851 5.762292 -0.663924
v -1.442527 5.762292 -0.963868
v -1.226768 5.762292 -1.226771
v -0.963865 5.762292 -1.442529
v -0.663921 5.762292 -1.602852
v -0.338462 5.762292 -1.701578
v -0.000000 6.053480 -0.911515
v 0.177828 6.053480 0.894001
v -0.000000 6.053480 0.911516
v -0.177826 6.053480 -0.894001
v 0.177828 6.159473 0.894001
v -0.000000 6.159473 0.911516
v -0.177826 6.159473 -0.894001
v -0.000000 6.159473 -0.911515
v 0.167641 5.762292 0.752623
v -0.010187 5.762292 0.770137
v 0.167641 6.053480 0.752623
v -0.010187 6.053480 0.770137
v -0.164458 5.762292 -0.758267
v 0.013368 5.762292 -0.775781
v -0.164458 6.053480 -0.758267
v 0.013368 6.053480 -0.775781
vt 0.580295 0.419706
vt 0.616663 0.449553
vt 0.616663 0.449553
vt 0.580295 0.419706
vt 0.796822 0.014612
vt 0.750000 0.010000
vt 0.750000 0.010000
vt 0.796822 0.014612
vt 0.841844 0.471731
vt 0.883337 0.449553
vt 0.883337 0.449553
vt 0.841844 0.471731
vt 0.658156 0.471731
vt 0.658156 0.471731
vt 0.703178 0.014612
vt 0.703178 0.014612
vt 0.919706 0.419706
vt 0.919706 0.419706
vt 0.703179 0.485389
vt 0.703179 0.485389
vt 0.658156 0.028269
vt 0.658156 0.028269
vt 0.949553 0.383337
vt 0.949553 0.383337
vt 0.750000 0.490000
vt 0.750000 0.490000
vt 0.616663 0.050447
vt 0.616663 0.050447
vt 0.971731 0.341844
vt 0.971731 0.341844
vt 0.580294 0.080294
vt 0.580294 0.080294
vt 0.985388 0.296822
vt 0.985388 0.296822
vt 0.550447 0.116663
vt 0.550447 0.116663
vt 0.990000 0.250000
vt 0.990000 0.250000
vt 0.528269 0.158156
vt 0.528269 0.158156
vt 0.985388 0.203178
vt 0.985388 0.203178
vt 0.514611 0.203179
vt 0.514611 0.203179
vt 0.971731 0.158156
vt 0.971731 0.158156
vt 0.510000 0.250000
vt 0.510000 0.250000
vt 0.949553 0.116663
vt 0.949553 0.116663
vt 0.514612 0.296822
vt 0.514612 0.296822
vt 0.919706 0.080294
vt 0.919706 0.080294
vt 0.528269 0.341844
vt 0.528269 0.341844
vt 0.883337 0.050447
vt 0.883337 0.050447
vt 0.550447 0.383337
vt 0.550447 0.383337
vt 0.841844 0.028269
vt 0.841844 0.028269
vt 0.796822 0.485388
vt 0.796822 0.485388
vt 0.798255 0.366497
vt 0.774600 0.373672
vt 0.750000 0.376095
vt 0.820054 0.354844
vt 0.839162 0.339163
vt 0.854844 0.320055
vt 0.866496 0.298255
vt 0.873672 0.274600
vt 0.876095 0.250000
vt 0.873672 0.225400
vt 0.866496 0.201746
vt 0.854844 0.179946
vt 0.839162 0.160837
vt 0.820054 0.145156
vt 0.798254 0.133503
vt 0.774600 0.126328
vt 0.750000 0.123905
vt 0.725400 0.126328
vt 0.701745 0.133504
vt 0.679945 0.145156
vt 0.660837 0.160838
vt 0.645156 0.179946
vt 0.633504 0.201746
vt 0.626328 0.225400
vt 0.623905 0.250000
vt 0.626328 0.274600
vt 0.633503 0.298255
vt 0.645156 0.320055
vt 0.660838 0.339163
vt 0.679946 0.354844
vt 0.701746 0.366496
vt 0.725400 0.373672
vt 0.000000 0.000000
vt 0.000000 0.000000
vt 0.000000 0.000000
vt 0.000000 0.000000
vt 0.000000 0.000000
vt 0.000000 0.000000
vt 0.000000 0.000000
vt 0.000000 0.000000
vt 0.000000 0.000000
vt 0.000000 0.000000
vt 0.000000 0.000000
vt 0.000000 0.000000
vt 0.774600 0.126328
vt 0.750000 0.123905
vt 0.725400 0.373672
vt 0.750000 0.376095
vt 0.774600 0.126328
vt 0.750000 0.123905
vt 0.725400 0.373672
vt 0.750000 0.376095
vt 0.000000 0.000000
vt 0.000000 0.000000
vt 0.000000 0.000000
vt 0.000000 0.000000
vt 0.774600 0.126328
vt 0.750000 0.123905
vt 0.750000 0.123905
vt 0.774600 0.126328
vt 0.000000 0.000000
vt 0.000000 0.000000
vt 0.725400 0.373672
vt 0.750000 0.376095
vt 0.750000 0.376095
vt 0.725400 0.373672
vt 0.000000 0.000000
vt 0.000000 0.000000
vn 0.6344 0.0000 0.7730
vn -0.0980 0.0000 -0.9952
vn -0.4714 0.0000 0.8819
vn 0.4714 0.0000 0.8819
vn 0.0980 -0.0000 -0.9952
vn -0.6344 0.0000 0.7730
vn 0.2903 0.0000 0.9569
vn 0.2903 0.0000 -0.9569
vn -0.7730 0.0000 0.6344
vn 0.0980 -0.0000 0.9952
vn 0.4714 0.0000 -0.8819
vn -0.8819 0.0000 0.4714
vn 0.6344 0.0000 -0.7730
vn -0.9569 0.0000 0.2903
vn 0.7730 0.0000 -0.6344
vn -0.9952 0.0000 0.0980
vn 0.8819 0.0000 -0.4714
vn -0.9952 0.0000 -0.0980
vn 0.9569 0.0000 -0.2903
vn -0.9569 0.0000 -0.2903
vn 0.9952 0.0000 -0.0980
vn -0.8819 0.0000 -0.4714
vn 0.9952 0.0000 0.0980
vn -0.7730 0.0000 -0.6344
vn 0.9569 0.0000 0.2903
vn -0.6344 0.0000 -0.7730
vn 0.8819 0.0000 0.4714
vn -0.4714 0.0000 -0.8819
vn -0.2903 0.0000 0.9569
vn 0.7730 0.0000 0.6344
vn -0.2903 0.0000 -0.9569
vn -0.0980 0.0000 0.9952
vn 0.0000 -1.0000 0.0000
vn 0.9974 -0.0000 -0.0719
vn 0.0000 1.0000 -0.0000
vn -0.9974 0.0000 0.0719
usemtl Material
s off
f 29/1/1 30/2/1 94/3/1 93/4/1
f 16/5/2 17/6/2 81/7/2 80/8/2
f 1/9/3 4/10/3 68/11/3 66/12/3
f 30/2/4 31/13/4 95/14/4 94/3/4
f 17/6/5 18/15/5 82/16/5 81/7/5
f 4/10/6 5/17/6 69/18/6 68/11/6
f 31/13/7 32/19/7 96/20/7 95/14/7
f 18/15/8 19/21/8 83/22/8 82/16/8
f 5/17/9 6/23/9 70/24/9 69/18/9
f 32/19/10 3/25/10 67/26/10 96/20/10
f 19/21/11 20/27/11 84/28/11 83/22/11
f 6/23/12 7/29/12 71/30/12 70/24/12
f 20/27/13 21/31/13 85/32/13 84/28/13
f 7/29/14 8/33/14 72/34/14 71/30/14
f 21/31/15 22/35/15 86/36/15 85/32/15
f 8/33/16 9/37/16 73/38/16 72/34/16
f 22/35/17 23/39/17 87/40/17 86/36/17
f 9/37/18 10/41/18 74/42/18 73/38/18
f 23/39/19 24/43/19 88/44/19 87/40/19
f 10/41/20 11/45/20 75/46/20 74/42/20
f 24/43/21 25/47/21 89/48/21 88/44/21
f 11/45/22 12/49/22 76/50/22 75/46/22
f 25/47/23 26/51/23 90/52/23 89/48/23
f 12/49/24 13/53/24 77/54/24 76/50/24
f 26/51/25 27/55/25 91/56/25 90/52/25
f 13/53/26 14/57/26 78/58/26 77/54/26
f 27/55/27 28/59/27 92/60/27 91/56/27
f 14/57/28 15/61/28 79/62/28 78/58/28
f 2/63/29 1/9/29 66/12/29 65/64/29
f 28/59/30 29/1/30 93/4/30 92/60/30
f 15/61/31 16/5/31 80/8/31 79/62/31
f 3/25/32 2/63/32 65/64/32 67/26/32
f 34/65/33 33/66/33 65/64/33 66/12/33
f 33/66/33 35/67/33 67/26/33 65/64/33
f 36/68/33 34/65/33 66/12/33 68/11/33
f 37/69/33 36/68/33 68/11/33 69/18/33
f 38/70/33 37/69/33 69/18/33 70/24/33
f 39/71/33 38/70/33 70/24/33 71/30/33
f 40/72/33 39/71/33 71/30/33 72/34/33
f 41/73/33 40/72/33 72/34/33 73/38/33
f 42/74/33 41/73/33 73/38/33 74/42/33
f 43/75/33 42/74/33 74/42/33 75/46/33
f 44/76/33 43/75/33 75/46/33 76/50/33
f 45/77/33 44/76/33 76/50/33 77/54/33
f 46/78/33 45/77/33 77/54/33 78/58/33
f 47/79/33 46/78/33 78/58/33 79/62/33
f 48/80/33 47/79/33 79/62/33 80/8/33
f 49/81/33 48/80/33 80/8/33 81/7/33
f 50/82/33 49/81/33 81/7/33 82/16/33
f 51/83/33 50/82/33 82/16/33 83/22/33
f 52/84/33 51/83/33 83/22/33 84/28/33
f 53/85/33 52/84/33 84/28/33 85/32/33
f 54/86/33 53/85/33 85/32/33 86/36/33
f 55/87/33 54/86/33 86/36/33 87/40/33
f 56/88/33 55/87/33 87/40/33 88/44/33
f 57/89/33 56/88/33 88/44/33 89/48/33
f 58/90/33 57/89/33 89/48/33 90/52/33
f 59/91/33 58/90/33 90/52/33 91/56/33
f 60/92/33 59/91/33 91/56/33 92/60/33
f 61/93/33 60/92/33 92/60/33 93/4/33
f 62/94/33 61/93/33 93/4/33 94/3/33
f 63/95/33 62/94/33 94/3/33 95/14/33
f 64/96/33 63/95/33 95/14/33 96/20/33
f 35/67/33 64/96/33 96/20/33 67/26/33
f 97/97/16 98/98/16 101/99/16 104/100/16
f 49/101/33 50/82/33 51/83/33 52/84/33 53/85/33 54/86/33 55/87/33 56/88/33 57/89/33 58/90/33 59/91/33 60/92/33 61/93/33 62/94/33 63/95/33 64/102/33
f 98/98/34 48/103/34 105/104/34 107/105/34
f 48/103/35 35/106/35 64/102/35 49/101/35
f 33/66/33 34/65/33 36/68/33 37/69/33 38/70/33 39/71/33 40/72/33 41/73/33 42/74/33 43/75/33 44/76/33 45/77/33 46/78/33 47/79/33 48/80/33 35/67/33
f 64/102/33 35/106/33 110/107/33 109/108/33
f 101/109/33 102/110/33 103/111/33 104/112/33
f 98/113/2 99/114/2 102/110/2 101/109/2
f 100/115/10 97/116/10 104/112/10 103/111/10
f 99/117/21 100/118/21 103/119/21 102/120/21
f 105/121/2 106/122/2 108/123/2 107/124/2
f 99/114/35 98/113/35 107/124/35 108/123/35
f 49/101/36 99/117/36 108/125/36 106/126/36
f 48/80/33 49/81/33 106/122/33 105/121/33
f 109/127/10 110/128/10 112/129/10 111/130/10
f 100/118/16 64/102/16 109/108/16 111/131/16
f 35/106/21 97/97/21 112/132/21 110/107/21
f 97/116/35 100/115/35 111/130/35 112/129/35
f 64/102/2 100/118/2 97/97/2 35/106/2
f 48/103/10 98/98/10 99/117/10 49/101/10
